<svg version="1.0" xmlns="http://www.w3.org/2000/svg"
 width="1280.000000pt" height="640.000000pt" viewBox="0 0 1280.000000 640.000000"
 preserveAspectRatio="xMidYMid meet">
<metadata>
Created by potrace 1.15, written by Peter Selinger 2001-2017
</metadata>
<g transform="translate(0.000000,640.000000) scale(0.100000,-0.100000)"
fill="#009688" stroke="none">
<path d="M7 5384 c-10 -10 -9 -406 3 -914 5 -234 12 -659 15 -945 3 -286 9
-790 15 -1120 5 -330 10 -740 10 -911 0 -285 2 -314 18 -334 10 -12 30 -24 44
-25 45 -5 52 -15 27 -41 -31 -33 -15 -46 51 -42 58 3 77 22 38 37 -29 11 -14
17 63 25 56 6 57 5 83 -29 22 -28 34 -35 62 -35 41 0 46 22 9 46 -14 9 -25 20
-25 25 0 18 49 20 85 3 41 -19 55 -42 34 -54 -18 -12 -8 -20 32 -26 37 -6 89
9 89 26 0 6 -13 16 -30 21 -48 17 -38 39 18 39 62 0 81 -12 64 -40 -7 -11 -10
-25 -8 -29 9 -14 62 -21 116 -14 57 7 61 20 11 45 l-33 17 33 6 c19 3 63 5 99
3 63 -3 65 -4 82 -38 l18 -35 92 -6 c51 -4 249 -7 439 -8 269 -1 349 2 363 12
16 12 16 14 2 26 -21 17 -21 47 0 55 29 11 409 7 421 -5 8 -8 6 -19 -6 -40
-14 -26 -14 -31 -1 -39 17 -11 132 -13 168 -4 39 11 18 29 -41 34 -63 6 -76
14 -61 38 17 27 40 26 104 -7 33 -17 63 -31 67 -31 3 0 3 14 0 30 -9 41 19 41
28 1 14 -63 80 -100 125 -71 13 8 12 12 -7 25 -76 54 -72 75 16 75 37 0 89 3
115 6 l46 7 20 -45 c11 -25 27 -51 36 -59 12 -10 95 -14 373 -17 l358 -4 27
28 c19 21 26 38 24 59 l-3 30 210 0 c167 -1 219 -4 253 -17 33 -12 51 -14 82
-6 34 9 44 8 60 -7 11 -10 20 -21 20 -26 0 -4 -63 -7 -140 -8 -128 -1 -190
-11 -190 -32 0 -4 8 -10 18 -14 23 -10 534 -6 670 5 66 5 127 5 160 -1 59 -11
101 -4 83 14 -6 6 -30 20 -54 32 -32 15 -42 26 -42 44 0 26 -13 25 215 22 l65
-1 55 -60 c57 -62 81 -71 115 -46 23 16 14 46 -15 46 -11 0 -29 9 -41 21 -19
19 -19 23 -6 36 12 12 22 13 58 3 89 -22 99 -29 99 -67 0 -42 17 -50 81 -36
30 6 116 7 221 2 95 -4 261 -4 368 -1 l195 7 3 53 c3 48 5 52 28 52 22 0 24
-3 24 -54 l0 -53 113 -6 c75 -3 114 -1 119 6 4 6 4 33 1 59 l-6 48 45 0 c57 0
95 -28 104 -76 l6 -34 222 2 221 3 5 29 c8 46 50 70 130 74 59 4 70 2 70 -12
0 -8 -13 -22 -30 -31 -30 -16 -40 -47 -19 -60 11 -8 141 -6 429 4 l185 6 3 27
c2 19 -2 28 -17 33 -12 3 -21 10 -21 15 0 20 24 21 55 4 27 -14 35 -25 37 -53
3 -34 5 -36 53 -44 49 -8 50 -8 78 27 16 20 34 36 41 36 7 0 22 -14 35 -31
l22 -30 97 6 c124 8 142 12 142 32 0 14 -9 15 -68 10 -74 -7 -128 3 -163 32
l-23 18 23 13 c19 9 273 11 1195 7 644 -4 1178 -6 1186 -5 8 0 310 1 670 2
360 1 669 5 685 9 105 24 763 54 795 37 14 -7 23 -6 36 7 15 16 16 71 10 777
-4 419 -9 842 -11 941 -3 99 -7 666 -10 1260 -5 887 -9 1084 -20 1101 -12 19
-26 21 -212 29 -109 5 -706 7 -1328 6 -621 -1 -1544 -3 -2050 -4 -946 -2 -975
-3 -975 -41 0 -7 -21 -31 -46 -51 l-46 -38 -18 23 c-16 21 -20 22 -50 11 -46
-16 -46 -16 -100 35 -62 58 -74 60 -455 73 -657 24 -1406 31 -3210 31 -1045 1
-1943 4 -1995 9 -52 4 -120 5 -151 2 -31 -4 -184 -4 -340 0 -491 12 -1764 22
-1772 13z m7423 -115 c0 -5 -4 -9 -10 -9 -5 0 -10 7 -10 16 0 8 5 12 10 9 6
-3 10 -10 10 -16z m-6155 -10 c0 -8 -10 -15 -22 -17 -25 -4 -30 7 -11 26 15
15 33 10 33 -9z m7029 6 c-6 -16 -34 -21 -34 -7 0 13 11 22 26 22 8 0 11 -6 8
-15z m331 5 c3 -5 1 -10 -4 -10 -6 0 -11 5 -11 10 0 6 2 10 4 10 3 0 8 -4 11
-10z m-775 -15 c0 -8 -7 -15 -15 -15 -26 0 -18 20 13 29 1 1 2 -6 2 -14z m550
6 c0 -13 -29 -35 -37 -28 -7 8 15 37 28 37 5 0 9 -4 9 -9z m-3790 -11 c0 -5
-7 -10 -16 -10 -8 0 -12 5 -9 10 3 6 10 10 16 10 5 0 9 -4 9 -10z m3110 -11
c0 -5 -10 -9 -21 -9 -18 0 -19 2 -9 15 12 15 30 12 30 -6z m780 8 c0 -14 -20
-37 -32 -37 -10 0 -11 34 -1 43 11 12 33 8 33 -6z m1870 1 c0 -14 -30 -48 -42
-48 -13 0 -9 22 9 42 18 21 33 23 33 6z m1011 2 c154 -12 196 -23 371 -91 182
-72 320 -175 449 -336 47 -59 149 -257 196 -383 80 -210 85 -233 103 -421 6
-59 14 -118 18 -129 4 -12 2 -70 -5 -128 -6 -59 -12 -115 -13 -124 0 -10 -6
-18 -13 -18 -20 0 -43 191 -27 220 9 17 8 25 -3 38 -12 14 -13 29 -6 77 5 36
5 78 -1 105 -5 25 -14 81 -21 125 -10 71 -15 85 -49 121 -20 22 -43 58 -50 80
-7 21 -21 55 -30 74 -13 26 -15 41 -8 54 15 28 -25 126 -66 158 -20 16 -53 64
-81 119 -44 84 -125 189 -146 189 -19 0 -7 -29 30 -71 39 -45 76 -107 68 -115
-3 -3 -34 33 -71 79 -94 121 -164 180 -281 237 -196 96 -360 133 -486 111 -37
-7 -93 -20 -126 -30 -53 -16 -58 -20 -58 -47 -1 -27 -6 -31 -65 -52 -209 -74
-244 -91 -328 -163 -77 -65 -113 -111 -99 -125 9 -9 48 16 104 66 62 57 215
134 298 151 41 8 99 9 180 4 66 -4 129 -7 140 -6 26 1 75 -19 75 -30 0 -5 -15
-9 -34 -9 -19 0 -38 -5 -41 -10 -13 -21 17 -40 61 -40 95 0 262 -83 379 -187
124 -112 214 -262 291 -485 20 -60 41 -108 46 -108 16 0 20 29 8 62 -7 18 -29
81 -49 140 -21 58 -54 130 -73 160 -19 29 -43 69 -53 88 -10 19 -44 67 -77
107 -67 83 -187 169 -310 222 -87 38 -102 57 -35 47 112 -18 206 -76 338 -212
208 -214 336 -514 378 -884 5 -45 14 -87 19 -92 18 -18 26 41 14 102 -7 31
-12 68 -12 84 0 74 -67 310 -135 476 -72 174 -320 463 -455 527 -65 32 -172
55 -330 74 -134 16 -189 35 -147 52 9 4 8 8 -3 16 -17 12 -6 28 25 33 13 2 21
-4 23 -17 6 -30 18 -38 47 -31 18 5 25 12 21 21 -8 21 10 19 33 -4 11 -11 46
-23 87 -30 38 -7 89 -21 114 -31 25 -11 65 -24 90 -31 63 -16 85 -29 177 -103
140 -113 303 -346 403 -575 38 -87 76 -238 85 -336 3 -38 8 -83 11 -98 10 -50
29 -23 34 49 5 62 6 67 18 47 7 -14 13 -62 14 -119 1 -52 5 -97 10 -100 11 -7
10 -54 -1 -54 -5 0 -11 14 -14 30 -13 63 -62 25 -55 -42 3 -24 1 -70 -4 -102
-9 -59 -3 -116 11 -116 14 0 34 87 27 115 -13 51 35 90 53 44 4 -12 2 -53 -5
-93 -16 -86 -17 -143 -5 -151 14 -8 30 54 44 163 6 50 14 92 18 92 4 0 12 -7
19 -15 10 -12 10 -31 -1 -95 -9 -59 -10 -86 -1 -104 27 -61 -7 -304 -53 -369
-8 -12 -15 -35 -15 -51 0 -16 -11 -52 -24 -80 -22 -47 -37 -92 -50 -156 -3
-14 -26 -47 -50 -75 -36 -41 -46 -48 -59 -37 -12 11 -23 -3 -73 -94 -40 -74
-71 -116 -102 -142 -25 -21 -56 -60 -72 -92 -40 -79 -100 -115 -100 -59 0 10
-4 19 -10 19 -5 0 -45 -34 -87 -76 -43 -41 -86 -79 -95 -85 -17 -9 -58 -13
-58 -4 0 2 39 43 88 91 98 98 98 128 0 39 -77 -69 -183 -142 -222 -151 -41
-10 -30 15 20 43 31 18 39 28 39 50 0 26 4 29 56 39 78 15 109 38 109 80 0 29
3 33 27 31 20 -1 28 3 31 17 2 10 -2 22 -8 26 -17 10 -94 -25 -155 -71 -63
-47 -125 -74 -125 -54 0 7 17 24 38 36 88 53 171 112 176 124 3 8 29 21 59 30
39 11 57 22 65 40 7 14 16 25 22 25 21 0 9 30 -15 36 -26 6 -37 3 -67 -18 -14
-10 -21 -9 -37 7 -25 22 -36 14 -36 -27 0 -17 -6 -33 -12 -35 -8 -3 -13 4 -13
16 0 29 -13 26 -71 -14 -28 -19 -66 -37 -85 -41 -61 -11 -155 5 -210 37 -52
29 -84 37 -84 20 0 -39 34 -62 123 -82 77 -17 87 -34 16 -26 -57 6 -151 38
-183 62 -15 11 -17 17 -7 29 10 11 8 17 -11 30 -28 20 -68 21 -68 2 0 -8 5
-18 10 -21 6 -3 10 -11 10 -16 0 -6 -14 1 -31 15 -39 33 -49 33 -49 -1 l0 -28
-38 40 c-21 22 -58 59 -82 82 -27 24 -54 63 -67 95 -94 227 -105 271 -118 481
-6 92 -9 108 -23 105 -30 -6 -36 -72 -17 -182 9 -56 26 -123 36 -151 10 -27
23 -72 30 -100 7 -27 29 -90 50 -139 21 -49 36 -93 33 -98 -10 -16 -24 -7 -50
32 -35 53 -44 43 -11 -13 22 -37 25 -51 20 -102 -4 -54 -2 -64 24 -101 42 -62
111 -134 129 -134 8 0 20 -14 26 -31 6 -17 21 -34 35 -40 24 -9 27 -34 4 -34
-6 0 -57 45 -112 100 -72 71 -110 119 -134 165 -18 36 -42 74 -54 84 -12 11
-21 26 -21 34 0 14 13 13 53 -3 18 -7 18 -5 -2 33 -15 29 -30 43 -56 52 -40
13 -40 13 -23 40 11 18 9 23 -15 43 -23 18 -30 34 -37 90 -6 41 -23 94 -44
135 -38 77 -50 146 -67 382 -12 165 -7 260 17 341 8 27 12 54 9 59 -11 18 -34
10 -52 -17 -18 -27 -20 -131 -12 -533 0 -30 -2 -82 -6 -115 -7 -59 -6 -60 29
-94 36 -35 48 -65 21 -55 -11 5 -12 0 -6 -23 10 -31 46 -115 90 -208 16 -33
34 -76 41 -95 19 -51 46 -94 117 -188 35 -46 63 -88 63 -94 0 -22 81 -118 125
-148 48 -33 53 -60 6 -36 -34 18 -147 137 -204 215 -23 32 -73 113 -112 180
-67 116 -85 139 -85 106 0 -31 156 -318 207 -381 34 -42 43 -69 21 -62 -7 3
-31 27 -53 55 -111 139 -133 168 -165 214 -19 28 -64 107 -100 177 -36 69 -71
128 -77 130 -20 6 -16 -39 7 -83 12 -22 35 -73 52 -113 16 -40 37 -80 45 -88
13 -12 13 -19 4 -38 -11 -19 -8 -28 15 -64 15 -23 32 -42 38 -42 6 0 5 5 -2
12 -16 16 -15 48 1 48 6 0 42 -39 79 -88 36 -48 104 -126 150 -173 67 -69 102
-96 181 -138 126 -68 228 -99 345 -108 89 -6 94 -7 104 -32 7 -19 6 -32 -5
-51 -22 -38 -62 -174 -83 -283 -19 -96 -41 -127 -37 -51 5 112 16 163 50 236
20 43 34 80 31 84 -12 12 -46 -16 -57 -48 -24 -63 -24 -63 -95 -60 -65 2 -77
-3 -55 -25 7 -7 8 -17 2 -28 -6 -11 -3 -34 9 -71 17 -49 17 -59 5 -84 -14 -27
-7 -50 15 -50 11 0 27 67 21 89 -6 24 13 36 33 20 22 -18 17 -295 -6 -309 -18
-11 -111 -13 -125 -2 -6 4 -11 62 -11 132 -2 150 -15 223 -58 310 -65 135
-176 209 -326 219 -97 7 -130 22 -156 74 -9 17 -58 95 -109 172 -116 176 -185
301 -269 484 -72 156 -154 400 -186 551 -22 104 -38 150 -51 150 -5 0 -9 5 -9
10 0 6 7 10 15 10 13 0 14 9 8 53 -4 28 -8 162 -7 297 l0 245 38 149 c58 232
185 501 305 646 20 25 52 66 69 92 22 31 63 68 129 112 54 37 132 90 173 120
139 98 354 160 611 175 14 0 86 -4 160 -9z m-9177 -15 c-4 -8 -10 -15 -15 -15
-4 0 -6 7 -3 15 4 8 10 15 15 15 4 0 6 -7 3 -15z m4966 -5 c0 -5 -4 -10 -10
-10 -5 0 -10 5 -10 10 0 6 5 10 10 10 6 0 10 -4 10 -10z m-4545 -10 c3 -5 1
-10 -4 -10 -6 0 -11 5 -11 10 0 6 2 10 4 10 3 0 8 -4 11 -10z m3605 0 c0 -5
-4 -10 -10 -10 -5 0 -10 5 -10 10 0 6 5 10 10 10 6 0 10 -4 10 -10z m3910 6
c0 -2 -7 -6 -15 -10 -8 -3 -15 -1 -15 4 0 6 7 10 15 10 8 0 15 -2 15 -4z
m-1855 -16 c3 -5 1 -10 -4 -10 -6 0 -11 5 -11 10 0 6 2 10 4 10 3 0 8 -4 11
-10z m-5400 -20 c0 -7 -6 -15 -12 -17 -8 -3 -13 4 -13 17 0 13 5 20 13 18 6
-3 12 -11 12 -18z m5835 0 c0 -5 -7 -10 -15 -10 -8 0 -15 5 -15 10 0 6 7 10
15 10 8 0 15 -4 15 -10z m-3056 -31 c-8 -14 -34 -11 -34 4 0 8 3 17 7 20 9 9
34 -13 27 -24z m3136 5 c0 -8 -4 -14 -10 -14 -5 0 -10 9 -10 21 0 11 5 17 10
14 6 -3 10 -13 10 -21z m2540 22 c0 -3 -4 -8 -10 -11 -5 -3 -10 -1 -10 4 0 6
5 11 10 11 6 0 10 -2 10 -4z m847 -44 c22 -37 23 -43 9 -48 -26 -10 -56 24
-56 63 0 44 15 39 47 -15z m-4320 16 c19 -15 6 -28 -27 -28 -32 0 -45 13 -36
36 6 16 38 12 63 -8z m2653 7 c0 -8 -7 -15 -15 -15 -16 0 -20 12 -8 23 11 12
23 8 23 -8z m-8402 -31 c-4 -25 -36 -30 -45 -8 -4 11 1 22 12 30 22 16 39 5
33 -22z m452 15 c0 -5 -4 -9 -10 -9 -5 0 -10 7 -10 16 0 8 5 12 10 9 6 -3 10
-10 10 -16z m4765 11 c3 -5 1 -10 -4 -10 -6 0 -11 5 -11 10 0 6 2 10 4 10 3 0
8 -4 11 -10z m4162 -17 c19 -8 32 -17 30 -20 -7 -7 -130 26 -141 38 -15 16 67
3 111 -18z m-8237 9 c0 -14 -11 -21 -26 -15 -8 3 -11 9 -8 14 7 11 34 12 34 1z
m-2586 -8 c29 -11 5 -24 -44 -24 -47 0 -73 13 -48 23 19 8 74 8 92 1z m916 -8
c0 -15 -27 -29 -40 -21 -5 3 -7 12 -3 20 7 19 43 20 43 1z m2160 10 c0 -3 -4
-8 -10 -11 -5 -3 -10 -1 -10 4 0 6 5 11 10 11 6 0 10 -2 10 -4z m5850 -16 c0
-21 -15 -27 -25 -10 -7 12 2 30 16 30 5 0 9 -9 9 -20z m-3225 0 c3 -5 1 -10
-4 -10 -6 0 -11 5 -11 10 0 6 2 10 4 10 3 0 8 -4 11 -10z m778 -33 c124 -57
264 -235 337 -430 48 -126 64 -229 58 -371 -3 -98 -5 -106 -50 -197 -53 -108
-74 -133 -179 -211 -95 -70 -145 -121 -158 -162 -6 -17 -15 -96 -21 -176 -6
-80 -12 -154 -13 -165 -3 -26 11 -382 24 -620 9 -164 24 -305 59 -560 5 -33
16 -114 24 -180 22 -170 53 -367 82 -535 14 -80 28 -163 31 -186 l5 -41 -110
-13 c-60 -7 -115 -9 -121 -6 -7 5 -1 16 17 31 24 21 25 24 10 30 -10 4 -32 2
-49 -4 -119 -41 -141 46 -59 226 36 77 41 95 30 108 -12 14 -15 14 -31 -1 -11
-10 -19 -22 -19 -29 0 -6 -17 -40 -39 -76 -50 -84 -62 -165 -32 -223 11 -21
18 -43 15 -47 -3 -5 -32 -9 -65 -9 -57 0 -59 1 -59 26 0 14 13 78 29 142 38
151 87 403 100 512 6 47 17 180 26 295 8 116 18 225 21 243 18 109 9 1015 -12
1267 l-7 80 -81 71 c-45 39 -95 78 -112 87 -18 9 -39 32 -49 54 -9 21 -39 83
-66 138 -26 55 -53 128 -60 163 -14 76 -7 232 15 317 20 76 90 216 134 269 19
23 46 59 60 81 32 52 69 93 107 117 42 27 131 21 208 -15z m1131 6 c9 -22 -10
-41 -25 -26 -13 13 -5 43 10 43 5 0 12 -8 15 -17z m-6924 3 c0 -3 -4 -8 -10
-11 -5 -3 -10 -1 -10 4 0 6 5 11 10 11 6 0 10 -2 10 -4z m6359 -10 c8 -10 9
-16 1 -21 -13 -8 -30 3 -30 21 0 18 14 18 29 0z m716 5 c3 -5 1 -12 -5 -16 -5
-3 -10 1 -10 9 0 18 6 21 15 7z m3160 -2 c4 -6 5 -12 2 -15 -7 -7 -37 7 -37
17 0 13 27 11 35 -2z m-3555 -13 c0 -8 -4 -18 -10 -21 -5 -3 -10 3 -10 14 0
12 5 21 10 21 6 0 10 -6 10 -14z m2190 4 c0 -5 -5 -10 -11 -10 -5 0 -7 5 -4
10 3 6 8 10 11 10 2 0 4 -4 4 -10z m-2060 -10 c0 -5 -7 -10 -15 -10 -8 0 -15
5 -15 10 0 6 7 10 15 10 8 0 15 -4 15 -10z m3601 -31 c123 -74 359 -352 415
-489 12 -30 39 -93 59 -140 35 -80 69 -213 57 -224 -9 -10 -22 5 -22 25 0 40
-90 232 -153 327 -35 53 -74 115 -85 138 -50 99 -219 281 -297 321 -59 30 -85
51 -85 70 0 24 43 14 111 -28z m-8676 1 c21 -41 18 -60 -5 -31 -18 21 -28 61
-15 61 2 0 11 -13 20 -30z m6082 -25 c19 -74 15 -77 -67 -69 -49 4 -70 3 -70
-5 0 -12 20 -17 100 -26 64 -7 76 -13 81 -39 5 -27 95 -80 103 -60 9 23 45 16
57 -10 8 -18 8 -33 1 -55 -10 -27 -8 -33 11 -46 12 -8 27 -15 34 -15 17 0 46
-46 38 -60 -3 -5 -21 -10 -38 -10 -38 0 -47 -6 -70 -42 -11 -17 -13 -29 -6
-33 15 -10 39 2 39 19 0 17 27 28 51 21 19 -6 39 -60 39 -108 0 -15 14 -46 30
-69 33 -45 38 -82 15 -112 -8 -11 -15 -27 -15 -35 0 -9 -21 -57 -47 -108 -45
-89 -51 -133 -12 -84 16 19 20 20 25 7 7 -17 -13 -83 -27 -92 -6 -3 -16 2 -23
12 -13 17 -14 16 -25 -4 -17 -32 -13 -60 9 -67 17 -5 20 -15 20 -69 0 -55 -4
-68 -30 -101 -35 -44 -35 -42 -15 -88 19 -47 20 -137 1 -137 -10 0 -12 12 -8
50 3 29 0 50 -5 50 -19 0 -32 -76 -44 -245 -14 -209 -21 -243 -54 -251 -13 -3
-86 -1 -161 4 -76 5 -144 8 -151 5 -19 -7 -16 -31 5 -37 23 -7 349 -12 355 -6
3 3 11 43 17 90 6 46 14 88 16 92 8 13 57 -51 50 -65 -4 -6 -13 -23 -21 -37
-10 -17 -15 -56 -15 -121 0 -104 -3 -109 -73 -153 -35 -22 -26 -36 22 -36 l39
0 -2 -305 -1 -305 -57 -59 c-32 -33 -58 -65 -58 -71 0 -7 -24 -39 -54 -71 -30
-32 -60 -74 -67 -94 -7 -19 -17 -35 -21 -35 -11 0 -11 1 13 56 12 27 38 72 59
99 36 49 60 88 60 99 0 15 -38 3 -74 -22 -37 -25 -45 -27 -145 -26 -90 1 -117
5 -180 28 -61 23 -78 26 -99 17 -13 -7 -32 -9 -42 -6 -15 5 -17 45 -23 508
-11 770 -9 1175 4 1183 7 4 9 23 5 52 -5 34 -2 50 10 63 15 16 14 20 -2 48
-10 17 -24 31 -31 31 -18 0 -16 10 8 36 16 17 24 44 31 106 14 123 26 179 69
327 41 138 65 194 123 284 33 52 83 107 96 107 3 0 22 21 41 46 38 51 106 105
129 101 9 -1 20 -22 27 -52z m-5657 14 c0 -5 -4 -9 -10 -9 -5 0 -10 7 -10 16
0 8 5 12 10 9 6 -3 10 -10 10 -16z m5420 5 c0 -8 -5 -12 -10 -9 -6 4 -8 11 -5
16 9 14 15 11 15 -7z m-4920 -19 c7 -8 8 -15 2 -15 -5 0 -15 7 -22 15 -7 8 -8
15 -2 15 5 0 15 -7 22 -15z m8218 -7 c-2 -13 -7 -23 -13 -23 -5 0 -11 10 -13
23 -2 15 2 22 13 22 11 0 15 -7 13 -22z m-7153 -9 c77 -14 126 -40 176 -91
112 -116 128 -194 139 -683 5 -203 13 -471 19 -595 20 -416 56 -2276 46 -2358
l-7 -54 -46 6 c-26 4 -191 11 -367 16 -176 5 -339 12 -362 15 -39 6 -43 9 -43
34 0 15 -3 69 -6 119 l-7 91 27 7 c14 3 26 9 27 13 0 3 2 24 5 46 7 59 5 435
-2 446 -3 6 -11 8 -17 6 -9 -3 -12 -67 -12 -228 0 -141 -4 -225 -10 -227 -6
-1 -11 91 -13 258 l-2 260 24 11 c35 16 40 38 12 50 -39 18 -56 76 -40 136 10
36 22 18 29 -42 14 -109 25 -64 25 102 0 236 -15 333 -34 228 -4 -19 -11 -35
-15 -35 -9 0 -22 174 -22 290 0 41 -5 291 -11 555 -6 264 -11 683 -12 930 l-1
450 28 57 c30 61 44 75 144 139 84 56 198 72 328 48z m4973 -9 c13 -11 21 -24
17 -30 -9 -15 -45 -12 -45 4 0 8 -3 21 -6 30 -8 21 6 20 34 -4z m-1604 -15 c3
-8 1 -15 -4 -15 -6 0 -10 7 -10 15 0 8 2 15 4 15 2 0 6 -7 10 -15z m1371 -5
c20 -23 12 -25 -33 -9 -18 6 -29 15 -26 20 9 16 40 10 59 -11z m-287 1 c9 -5
11 -17 6 -34 -8 -34 -18 -34 -32 -2 -6 14 -16 25 -22 25 -5 0 -10 5 -10 10 0
12 40 13 58 1z m162 -1 c0 -5 -5 -10 -11 -10 -5 0 -7 5 -4 10 3 6 8 10 11 10
2 0 4 -4 4 -10z m2740 -11 c0 -5 -4 -9 -10 -9 -5 0 -10 7 -10 16 0 8 5 12 10
9 6 -3 10 -10 10 -16z m-8866 -30 c-3 -5 -10 -7 -15 -3 -5 3 -7 10 -3 15 3 5
10 7 15 3 5 -3 7 -10 3 -15z m340 -494 c10 -681 53 -1356 89 -1392 21 -22 41
-11 61 32 16 33 17 77 16 467 0 237 -5 512 -10 612 -8 147 -7 203 5 299 9 65
20 129 25 143 7 19 6 33 -7 57 -14 28 -15 41 -4 107 7 41 18 84 23 94 10 19
11 19 24 1 14 -19 14 -64 -1 -186 -5 -38 -4 -59 4 -63 7 -5 11 -61 11 -171 0
-91 7 -260 15 -377 9 -117 19 -301 24 -408 8 -188 8 -196 -12 -217 -11 -13
-19 -24 -16 -25 2 -2 13 -8 24 -14 11 -6 21 -21 23 -33 3 -16 -4 -24 -27 -32
-17 -6 -31 -14 -31 -18 0 -4 15 -21 34 -37 31 -28 34 -36 39 -105 4 -41 11
-135 18 -209 20 -227 23 -327 8 -313 -7 7 -14 47 -16 95 -5 109 -11 134 -26
119 -6 -6 -10 -26 -9 -45 3 -40 -12 -55 -59 -57 -19 -2 -51 -11 -73 -22 -37
-18 -40 -18 -71 -1 -32 17 -34 17 -90 -10 -50 -25 -58 -26 -73 -14 -24 21 -52
29 -73 23 -26 -9 -24 -27 7 -56 30 -28 78 -29 203 -5 189 36 231 31 231 -28 0
-38 7 -36 -162 -51 -66 -6 -93 -20 -69 -35 13 -8 80 -4 183 11 123 17 124 -6
5 -82 -45 -28 -95 -63 -111 -78 -73 -67 -85 -159 -86 -667 0 -295 -3 -364 -14
-380 -10 -13 -13 -34 -9 -66 4 -31 1 -53 -7 -63 -17 -21 -92 -20 -119 3 -21
16 -21 20 -10 92 13 85 7 346 -11 505 -16 136 -65 327 -101 394 -75 142 -149
208 -274 246 -46 14 -89 32 -96 41 -10 12 -10 85 -4 347 5 183 8 355 7 382 -6
322 8 675 33 830 2 17 9 100 15 185 6 85 22 246 35 357 14 112 25 218 25 237
0 47 9 66 31 66 17 0 19 -8 19 -87 0 -49 -5 -140 -10 -203 -6 -63 -13 -185
-15 -272 -3 -86 -9 -178 -13 -205 -5 -26 -8 -117 -7 -200 2 -110 -1 -158 -10
-170 -10 -14 -10 -21 2 -40 18 -26 10 -43 -20 -43 -12 0 -29 -5 -37 -10 -13
-9 -12 -12 5 -25 11 -9 24 -14 31 -11 6 2 16 1 23 -3 8 -6 2 -12 -18 -21 -33
-13 -41 -30 -16 -30 20 0 19 -24 -1 -41 -14 -11 -13 -14 10 -26 19 -10 26 -22
26 -42 0 -33 -14 -48 -50 -53 -34 -4 -32 -32 3 -36 33 -4 35 -18 5 -28 -22 -6
-21 -7 5 -26 36 -27 35 -57 -3 -71 -39 -15 -38 -36 1 -44 36 -7 49 -33 49
-103 0 -59 42 -150 69 -150 30 0 48 32 55 97 8 74 24 420 36 798 9 287 62 983
78 1025 l9 25 8 -25 c4 -13 7 -247 6 -520 -4 -973 -1 -1313 12 -1350 15 -45
57 -54 81 -18 34 54 38 133 42 811 2 368 8 730 14 805 20 274 23 297 34 311
19 25 23 -42 30 -504z m-2574 495 c0 -5 -9 -10 -20 -10 -11 0 -20 5 -20 10 0
6 9 10 20 10 11 0 20 -4 20 -10z m334 -50 c0 -25 -10 -81 -23 -125 -32 -116
-37 -239 -16 -360 24 -140 80 -368 125 -510 34 -108 86 -362 111 -550 6 -38
11 -160 12 -270 2 -219 -1 -237 -70 -495 -20 -74 -43 -146 -53 -160 -9 -14
-44 -81 -77 -150 -63 -133 -133 -244 -159 -254 -9 -3 -40 -6 -70 -6 -67 0
-136 -33 -204 -96 -84 -79 -100 -141 -122 -462 -15 -230 -12 -225 -120 -226
-71 -1 -71 -1 -79 29 -4 17 -12 116 -18 220 -12 210 -30 298 -83 398 -39 72
-107 134 -157 143 -20 3 -44 8 -53 10 -18 5 -97 145 -118 209 -7 22 -25 65
-41 95 -78 156 -149 435 -170 669 -14 163 -6 571 15 749 8 73 18 188 21 256 3
67 15 162 26 211 11 50 23 106 25 126 5 33 10 37 42 43 71 11 121 7 130 -11
17 -32 21 -124 24 -508 l3 -380 -77 -11 c-43 -5 -81 -13 -84 -17 -21 -21 44
-28 126 -14 47 7 78 -3 66 -22 -4 -6 -36 -11 -74 -11 -75 0 -142 -15 -142 -32
0 -7 25 -9 79 -5 84 5 111 -4 88 -31 -9 -12 -7 -18 11 -31 13 -9 39 -31 57
-48 41 -39 89 -44 128 -13 42 33 52 122 49 440 -3 403 -2 869 3 883 3 7 11 73
20 147 14 126 25 163 42 146 4 -4 6 -39 5 -79 -2 -49 4 -94 18 -142 17 -60 21
-109 27 -338 6 -265 6 -268 -15 -288 -26 -23 -27 -37 -7 -66 11 -15 17 -56 21
-129 2 -59 9 -127 14 -151 6 -24 15 -115 20 -201 12 -183 23 -241 57 -299 28
-50 49 -54 85 -15 35 38 39 51 47 194 5 70 13 134 20 141 6 9 8 27 5 47 -6 25
-3 35 10 42 16 9 15 13 -11 40 l-28 29 -7 197 c-12 364 -9 719 7 822 8 52 15
118 15 145 0 55 12 86 25 65 4 -7 14 -114 21 -239 7 -124 18 -245 24 -269 13
-56 13 -148 -1 -174 -9 -16 -7 -26 9 -47 17 -24 20 -44 21 -155 1 -71 2 -131
3 -135 1 -3 -4 -26 -11 -50 -8 -27 -10 -59 -5 -80 4 -20 6 -47 5 -61 -1 -14 7
-51 18 -83 11 -32 23 -91 27 -132 l7 -74 -44 -3 c-33 -2 -45 -7 -47 -22 -4
-17 1 -18 51 -12 49 6 57 5 66 -13 16 -28 15 -29 -24 -37 -19 -3 -35 -10 -35
-14 0 -21 33 -31 97 -28 67 3 68 4 85 38 19 41 24 223 18 604 l-4 230 28 11
28 12 -30 21 c-32 23 -48 77 -30 100 6 6 30 12 54 12 62 0 59 25 -3 37 -46 8
-48 10 -50 42 -1 19 3 46 9 60 6 14 19 95 29 179 15 127 23 165 49 220 39 84
76 124 110 120 23 -3 25 -7 24 -48z m1507 37 c-1 -12 -15 -9 -19 4 -3 6 1 10
8 8 6 -3 11 -8 11 -12z m9039 -22 c-14 -16 -50 -21 -50 -6 0 6 10 17 22 25 27
19 48 5 28 -19z m-5745 16 c7 -12 -12 -24 -25 -16 -11 7 -4 25 10 25 5 0 11
-4 15 -9z m2806 -1 c10 -6 19 -15 19 -20 0 -14 -34 -12 -48 2 -26 26 -7 37 29
18z m-6748 -58 c15 -31 28 -60 27 -64 0 -14 -19 -8 -38 12 -15 16 -21 18 -29
8 -17 -22 -54 -138 -48 -148 14 -22 107 -2 104 22 -3 29 2 38 24 38 13 0 32
-9 42 -20 30 -33 102 -383 141 -682 14 -112 30 -232 34 -268 5 -36 9 -110 10
-166 0 -138 4 -135 -196 -145 -88 -4 -161 -12 -167 -18 -15 -15 -3 -16 198
-16 l170 0 6 -70 c3 -38 2 -106 -3 -150 -6 -50 -6 -102 1 -140 5 -33 13 -88
16 -122 6 -58 5 -64 -19 -88 l-26 -26 -180 3 c-163 3 -180 5 -193 22 -14 19
-15 19 -26 -2 -9 -16 -9 -44 -1 -107 7 -60 8 -148 0 -291 -5 -114 -7 -211 -3
-217 12 -20 33 27 33 74 0 26 5 51 11 55 6 4 8 20 5 39 -8 42 2 45 155 45 82
0 121 4 134 14 18 13 18 14 -4 21 -13 4 -81 4 -151 0 -127 -7 -128 -7 -135 15
-9 29 -11 173 -2 187 4 6 64 10 156 11 101 0 157 5 173 13 l23 13 -30 7 c-16
4 -93 7 -170 8 -77 1 -146 5 -153 9 -15 10 -6 42 12 42 6 0 91 2 189 4 144 4
180 2 191 -10 12 -12 14 -54 11 -237 -6 -313 -13 -411 -37 -502 -12 -44 -24
-105 -27 -135 l-6 -55 -44 -3 -43 -3 22 36 c21 34 22 37 5 55 -17 19 -17 21 0
40 29 32 8 41 -118 47 -136 7 -147 2 -147 -62 0 -55 28 -80 111 -96 32 -6 59
-16 59 -20 0 -14 -142 -10 -170 4 -17 9 -27 24 -31 49 -6 37 -14 52 -56 99
-23 25 -23 27 -13 147 8 104 11 457 6 900 l-1 123 100 5 c301 17 320 19 320
34 0 10 -8 14 -25 13 -29 -3 -306 -3 -365 0 l-40 2 -2 65 c-4 109 -23 310 -39
409 -18 109 -14 142 16 134 27 -7 27 21 -1 41 -17 12 -20 21 -15 43 16 63 18
83 9 83 -20 0 -33 53 -33 129 0 102 -26 238 -51 274 -26 36 -20 65 25 115 55
62 103 138 156 249 56 117 85 163 103 163 7 -1 25 -27 40 -58z m3663 43 c3 -8
-3 -63 -15 -122 -14 -74 -20 -141 -19 -213 1 -64 -3 -113 -10 -127 -8 -15 -9
-29 -1 -52 6 -16 11 -77 12 -133 l2 -103 -120 -5 c-66 -3 -126 -9 -133 -13
-29 -19 7 -27 127 -27 131 0 163 -9 139 -37 -8 -10 -7 -24 5 -56 18 -50 32
-132 52 -317 8 -74 21 -180 30 -235 43 -276 75 -649 74 -875 0 -271 -26 -515
-57 -539 -20 -15 -21 -18 -7 -91 7 -41 18 -87 23 -101 7 -17 7 -41 -1 -75 -6
-30 -9 -143 -8 -292 3 -218 2 -242 -13 -242 -13 0 -16 13 -16 78 0 122 -20
355 -32 369 -17 21 -256 18 -279 -3 -16 -14 -17 -33 -12 -208 5 -146 3 -195
-6 -200 -7 -5 -15 -6 -17 -3 -3 3 -12 92 -20 198 -7 107 -16 205 -19 219 -11
50 -1 53 201 59 169 5 189 8 192 24 3 14 -4 17 -38 17 l-42 0 31 39 c38 48 39
59 4 72 -39 15 -201 23 -243 12 -51 -13 -76 -6 -118 35 -20 20 -50 44 -67 52
-43 21 -44 72 -7 203 52 178 56 248 48 802 -3 275 -11 529 -16 565 -5 36 -12
187 -16 335 -6 248 -5 281 15 400 47 285 141 473 283 564 67 44 85 49 94 26z
m364 5 c0 -5 -5 -10 -11 -10 -5 0 -7 5 -4 10 3 6 8 10 11 10 2 0 4 -4 4 -10z
m-6250 -17 c0 -18 -35 -83 -44 -83 -8 0 6 74 17 88 14 17 27 15 27 -5z m173
-38 c35 -43 47 -67 52 -103 4 -26 15 -59 26 -74 23 -33 24 -46 4 -86 -14 -26
-14 -40 -4 -97 10 -50 10 -68 1 -77 -9 -9 -14 -4 -23 20 -13 38 -24 40 -56 10
-24 -22 -24 -22 -59 -3 -31 17 -35 23 -30 49 3 17 8 118 12 224 5 143 10 192
19 192 7 0 33 -25 58 -55z m1700 41 c6 -16 -2 -28 -14 -20 -12 7 -11 34 0 34
5 0 11 -6 14 -14z m7622 -6 c0 -15 -61 -38 -72 -27 -3 4 2 16 12 27 21 23 60
23 60 0z m195 3 c8 -7 -16 -38 -32 -41 -21 -4 -63 32 -54 47 7 10 72 6 86 -6z
m2414 11 c20 -8 21 -34 2 -34 -17 0 -38 24 -29 33 8 8 8 8 27 1z m-9284 -24
c0 -13 -7 -20 -18 -20 -24 0 -32 8 -25 26 8 22 43 17 43 -6z m5070 10 c0 -5
-4 -10 -10 -10 -5 0 -10 5 -10 10 0 6 5 10 10 10 6 0 10 -4 10 -10z m115 -231
c2 -224 4 -240 35 -379 27 -120 33 -168 34 -275 1 -154 -6 -176 -79 -218 -66
-38 -122 -93 -134 -131 -34 -105 -52 -240 -47 -344 3 -59 8 -257 12 -440 5
-294 4 -341 -11 -396 -16 -59 -16 -64 0 -102 14 -31 19 -78 22 -234 8 -315 10
-352 21 -415 17 -92 32 -271 32 -371 l0 -90 -66 -11 c-36 -6 -72 -9 -80 -6
-17 6 -17 5 -3 343 7 189 7 414 -1 785 -18 865 -27 1079 -50 1211 -28 159 -32
165 -134 200 l-61 21 -13 59 c-14 63 -9 206 9 265 5 19 17 90 25 159 8 69 19
141 24 160 6 19 10 124 10 233 0 167 2 197 15 197 34 0 45 -42 55 -226 5 -98
10 -227 10 -286 0 -83 3 -110 16 -122 41 -42 50 -13 63 204 14 230 36 419 51
434 7 7 15 6 25 -4 11 -12 17 -72 25 -270 13 -300 17 -334 46 -338 13 -2 24 5
32 20 6 13 19 119 27 237 18 249 45 379 77 369 8 -3 12 -81 13 -239z m1800
221 c-3 -5 -10 -10 -16 -10 -5 0 -9 5 -9 10 0 6 7 10 16 10 8 0 12 -4 9 -10z
m-7245 -52 c0 -11 -8 -18 -19 -18 -28 0 -33 13 -14 39 12 18 17 20 24 10 5 -8
9 -22 9 -31z m1401 -1 c-8 -8 -11 -5 -11 9 0 27 14 41 18 19 2 -9 -1 -22 -7
-28z m4454 33 c-3 -5 -11 -10 -16 -10 -6 0 -7 5 -4 10 3 6 11 10 16 10 6 0 7
-4 4 -10z m3805 0 c0 -5 -2 -10 -4 -10 -3 0 -8 5 -11 10 -3 6 -1 10 4 10 6 0
11 -4 11 -10z m-9310 -25 c0 -15 -18 -30 -27 -22 -2 3 -2 15 2 26 7 23 25 19
25 -4z m-2170 5 c0 -5 -4 -10 -10 -10 -5 0 -10 5 -10 10 0 6 5 10 10 10 6 0
10 -4 10 -10z m4840 -82 c0 -13 -23 -5 -28 10 -2 7 2 10 12 6 9 -3 16 -11 16
-16z m3680 -19 c0 -5 -4 -9 -10 -9 -5 0 -10 7 -10 16 0 8 5 12 10 9 6 -3 10
-10 10 -16z m200 -5 c0 -8 -4 -12 -10 -9 -5 3 -10 10 -10 16 0 5 5 9 10 9 6 0
10 -7 10 -16z m310 1 c0 -8 -4 -15 -10 -15 -5 0 -10 7 -10 15 0 8 5 15 10 15
6 0 10 -7 10 -15z m-8210 -4 c0 -17 -12 -41 -21 -41 -10 0 -12 33 -2 43 9 10
23 9 23 -2z m300 -1 c0 -5 -4 -10 -10 -10 -5 0 -10 5 -10 10 0 6 5 10 10 10 6
0 10 -4 10 -10z m6460 0 c0 -5 -4 -10 -10 -10 -5 0 -10 5 -10 10 0 6 5 10 10
10 6 0 10 -4 10 -10z m-150 -13 c0 -8 -3 -17 -7 -20 -9 -9 -34 13 -27 24 8 14
34 11 34 -4z m-6375 -6 c3 -5 1 -12 -5 -16 -5 -3 -10 1 -10 9 0 18 6 21 15 7z
m1220 -11 c3 -5 1 -10 -4 -10 -6 0 -11 5 -11 10 0 6 2 10 4 10 3 0 8 -4 11
-10z m-2007 -58 c2 -14 -2 -22 -12 -22 -19 0 -29 17 -22 36 8 22 30 12 34 -14z
m3102 4 c0 -17 -14 -29 -23 -20 -8 8 3 34 14 34 5 0 9 -6 9 -14z m5175 3 c4
-5 -1 -19 -11 -30 -21 -23 -49 -26 -40 -3 3 9 6 22 6 30 0 16 36 19 45 3z
m-8547 -22 c2 -10 -3 -17 -12 -17 -18 0 -29 16 -21 31 9 14 29 6 33 -14z
m7520 -20 c2 -20 -1 -37 -7 -37 -13 0 -17 8 -26 48 -6 29 -5 33 12 30 13 -2
19 -14 21 -41z m-6461 -11 c-4 -9 -11 -16 -17 -16 -11 0 -14 33 -3 44 11 10
26 -11 20 -28z m83 24 c0 -5 -4 -10 -10 -10 -5 0 -10 5 -10 10 0 6 5 10 10 10
6 0 10 -4 10 -10z m7780 -11 c0 -11 -27 -12 -34 0 -3 4 -3 11 0 14 8 8 34 -3
34 -14z m-113 -5 c8 -22 -25 -46 -51 -38 -32 10 -33 14 -7 35 29 23 50 24 58
3z m2808 6 c3 -5 1 -10 -4 -10 -6 0 -11 5 -11 10 0 6 2 10 4 10 3 0 8 -4 11
-10z m-10655 -15 c0 -9 -9 -15 -22 -15 -22 1 -23 1 -4 15 25 19 26 19 26 0z
m6460 5 c0 -5 -2 -10 -4 -10 -3 0 -8 5 -11 10 -3 6 -1 10 4 10 6 0 11 -4 11
-10z m1260 1 c0 -12 -20 -25 -27 -18 -7 7 6 27 18 27 5 0 9 -4 9 -9z m-1060
-72 c0 -5 -7 -9 -15 -9 -15 0 -20 12 -9 23 8 8 24 -1 24 -14z m-6685 -9 c3 -5
1 -10 -4 -10 -6 0 -11 5 -11 10 0 6 2 10 4 10 3 0 8 -4 11 -10z m6515 -4 c0
-2 3 -11 6 -20 5 -12 0 -16 -19 -16 -25 0 -52 22 -40 33 7 8 53 10 53 3z
m-5258 -61 c0 -5 -5 -11 -11 -13 -6 -2 -11 4 -11 13 0 9 5 15 11 13 6 -2 11
-8 11 -13z m6606 -6 c-2 -6 -8 -10 -13 -10 -5 0 -11 4 -13 10 -2 6 4 11 13 11
9 0 15 -5 13 -11z m2757 -39 c3 -5 1 -10 -4 -10 -6 0 -11 5 -11 10 0 6 2 10 4
10 3 0 8 -4 11 -10z m-6130 -10 c3 -5 1 -10 -4 -10 -6 0 -11 5 -11 10 0 6 2
10 4 10 3 0 8 -4 11 -10z m3182 -12 c-3 -8 -6 -5 -6 6 -1 11 2 17 5 13 3 -3 4
-12 1 -19z m-1087 -33 c17 -21 4 -36 -23 -25 -12 4 -30 11 -40 14 -10 3 -15
10 -12 16 9 15 61 12 75 -5z m-4185 -25 c-3 -5 -11 -10 -16 -10 -6 0 -7 5 -4
10 3 6 11 10 16 10 6 0 7 -4 4 -10z m-1467 -29 c2 -12 0 -30 -3 -39 -6 -13
-10 -9 -20 18 -7 19 -10 39 -8 43 9 15 28 1 31 -22z m-1526 1 c7 -25 -10 -64
-24 -60 -18 6 -22 46 -8 64 16 19 27 18 32 -4z m2928 -26 c0 -3 -4 -8 -10 -11
-5 -3 -10 -1 -10 4 0 6 5 11 10 11 6 0 10 -2 10 -4z m3350 -26 c0 -5 -4 -10
-10 -10 -5 0 -10 5 -10 10 0 6 5 10 10 10 6 0 10 -4 10 -10z m2110 -26 c6 -14
10 -33 10 -42 -1 -25 -40 24 -40 49 0 27 19 23 30 -7z m2594 -40 c4 -9 4 -19
2 -21 -8 -8 -26 8 -26 23 0 19 16 18 24 -2z m-2514 -20 c0 -16 -16 -19 -25 -4
-8 13 4 32 16 25 5 -4 9 -13 9 -21z m2840 12 c0 -11 -19 -15 -25 -6 -3 5 1 10
9 10 9 0 16 -2 16 -4z m-10840 -50 c0 -17 -27 -29 -35 -16 -4 6 -3 15 0 20 9
15 35 12 35 -4z m2435 -16 c0 -7 -6 -15 -12 -17 -8 -3 -13 4 -13 17 0 13 5 20
13 18 6 -3 12 -11 12 -18z m8065 -15 c0 -8 -4 -15 -9 -15 -13 0 -22 16 -14 24
11 11 23 6 23 -9z m-9400 -15 c0 -5 -4 -10 -10 -10 -5 0 -10 5 -10 10 0 6 5
10 10 10 6 0 10 -4 10 -10z m6838 -36 c-10 -10 -28 6 -28 24 0 15 1 15 17 -1
9 -9 14 -19 11 -23z m-5338 11 c0 -8 -9 -15 -20 -15 -11 0 -20 7 -20 15 0 8 9
15 20 15 11 0 20 -7 20 -15z m5185 5 c3 -5 1 -10 -4 -10 -6 0 -11 5 -11 10 0
6 2 10 4 10 3 0 8 -4 11 -10z m-7790 -20 c3 -5 -1 -10 -10 -10 -9 0 -13 5 -10
10 3 6 8 10 10 10 2 0 7 -4 10 -10z m2505 0 c0 -5 -2 -10 -4 -10 -3 0 -8 5
-11 10 -3 6 -1 10 4 10 6 0 11 -4 11 -10z m-1226 -19 c10 -16 -6 -71 -20 -71
-14 0 -20 60 -7 73 9 10 21 9 27 -2z m6686 -11 c0 -5 -4 -10 -10 -10 -5 0 -10
5 -10 10 0 6 5 10 10 10 6 0 10 -4 10 -10z m2770 -4 c0 -15 -18 -31 -26 -23
-7 7 7 37 17 37 5 0 9 -6 9 -14z m-11253 -28 c-3 -8 -6 -5 -6 6 -1 11 2 17 5
13 3 -3 4 -12 1 -19z m8353 18 c0 -11 -19 -15 -25 -6 -3 5 1 10 9 10 9 0 16
-2 16 -4z m2970 -16 c0 -12 -28 -25 -36 -17 -9 9 6 27 22 27 8 0 14 -5 14 -10z
m-8223 -51 c10 -25 9 -31 -3 -36 -23 -8 -36 11 -28 41 8 34 17 33 31 -5z
m-1367 -29 c0 -11 -4 -20 -10 -20 -5 0 -10 9 -10 20 0 11 5 20 10 20 6 0 10
-9 10 -20z m4620 10 c0 -5 -4 -10 -10 -10 -5 0 -10 5 -10 10 0 6 5 10 10 10 6
0 10 -4 10 -10z m1855 -11 c0 -7 -8 -15 -17 -17 -18 -3 -25 18 -11 32 10 10
28 1 28 -15z m105 11 c0 -5 -7 -10 -15 -10 -8 0 -15 5 -15 10 0 6 7 10 15 10
8 0 15 -4 15 -10z m-5380 -21 c0 -5 -4 -9 -10 -9 -5 0 -10 7 -10 16 0 8 5 12
10 9 6 -3 10 -10 10 -16z m5520 -5 c0 -8 -7 -14 -15 -14 -15 0 -21 21 -9 33
10 9 24 -2 24 -19z m-1280 -4 c0 -5 -7 -10 -16 -10 -8 0 -12 5 -9 10 3 6 10
10 16 10 5 0 9 -4 9 -10z m-4225 -40 c-3 -5 -11 -10 -16 -10 -6 0 -7 5 -4 10
3 6 11 10 16 10 6 0 7 -4 4 -10z m5202 -52 c-3 -8 -6 -5 -6 6 -1 11 2 17 5 13
3 -3 4 -12 1 -19z m-7464 -39 c-17 -17 -37 -1 -22 17 8 10 15 12 23 4 7 -7 7
-13 -1 -21z m6459 -11 c-17 -17 -47 9 -30 29 10 12 13 12 27 -1 11 -12 12 -19
3 -28z m-2022 13 c0 -6 -4 -13 -10 -16 -5 -3 -10 1 -10 9 0 9 5 16 10 16 6 0
10 -4 10 -9z m-3375 -11 c3 -5 -1 -10 -9 -10 -9 0 -16 5 -16 10 0 6 4 10 9 10
6 0 13 -4 16 -10z m3650 -29 c0 -8 -4 -16 -10 -18 -16 -5 -38 14 -30 26 9 16
40 9 40 -8z m1835 -6 c0 -15 -6 -25 -14 -25 -22 0 -30 19 -16 35 18 22 30 18
30 -10z m1245 -8 c-11 -6 -21 -5 -28 2 -17 17 12 34 31 19 11 -10 10 -13 -3
-21z m-240 14 c5 -10 -21 -41 -34 -41 -18 0 -31 26 -19 38 14 14 45 16 53 3z
m-2635 -18 c0 -10 -7 -27 -15 -37 -8 -11 -15 -28 -15 -39 0 -11 -5 -17 -12
-14 -26 9 -1 107 27 107 8 0 15 -8 15 -17z m2725 7 c3 -5 1 -10 -4 -10 -6 0
-11 5 -11 10 0 6 2 10 4 10 3 0 8 -4 11 -10z m-1247 -27 c-4 -22 -22 -20 -26
1 -2 10 3 16 13 16 10 0 15 -7 13 -17z m-654 -24 c-10 -16 -24 -9 -24 12 0 18
2 19 15 9 8 -7 12 -16 9 -21z m-1244 2 c0 -6 -4 -13 -10 -16 -5 -3 -10 1 -10
9 0 9 5 16 10 16 6 0 10 -4 10 -9z m1794 0 c3 -5 -1 -14 -8 -20 -16 -13 -32 2
-21 19 8 12 22 13 29 1z m1236 -41 c0 -14 -39 -42 -49 -35 -14 8 -14 41 0 68
l12 21 18 -23 c11 -13 19 -27 19 -31z m258 11 c3 -8 -1 -12 -9 -9 -7 2 -15 10
-17 17 -3 8 1 12 9 9 7 -2 15 -10 17 -17z m2812 5 c0 -3 -4 -8 -10 -11 -5 -3
-10 -1 -10 4 0 6 5 11 10 11 6 0 10 -2 10 -4z m-4840 -26 c0 -5 -9 -10 -20
-10 -11 0 -20 5 -20 10 0 6 9 10 20 10 11 0 20 -4 20 -10z m524 -49 c3 -5 -1
-11 -9 -15 -9 -3 -15 0 -15 9 0 16 16 20 24 6z m-729 -11 c3 -5 -1 -10 -9 -10
-9 0 -16 5 -16 10 0 6 4 10 9 10 6 0 13 -4 16 -10z m2007 -12 c-7 -7 -12 -8
-12 -2 0 14 12 26 19 19 2 -3 -1 -11 -7 -17z m-7548 -17 c4 -5 3 -17 0 -26 -5
-13 -8 -14 -15 -3 -7 10 -9 10 -9 1 0 -7 -11 -13 -25 -13 -15 0 -25 6 -25 15
0 26 61 47 74 26z m6211 -12 c4 -12 2 -26 -4 -32 -15 -15 -46 16 -38 37 9 23
34 20 42 -5z m4299 -11 c-9 -14 -23 2 -17 18 4 12 8 13 14 3 4 -7 5 -17 3 -21z
m92 -34 c-3 -8 -10 -14 -16 -14 -14 0 -13 27 2 53 l13 22 3 -23 c2 -13 1 -30
-2 -38z m-6036 16 c0 -5 -4 -10 -10 -10 -5 0 -10 5 -10 10 0 6 5 10 10 10 6 0
10 -4 10 -10z m2790 -39 c0 -22 -4 -42 -9 -46 -12 -7 -26 59 -16 74 13 23 25
9 25 -28z m-7210 9 c0 -5 -2 -10 -4 -10 -3 0 -8 5 -11 10 -3 6 -1 10 4 10 6 0
11 -4 11 -10z m7517 -6 c8 -21 -13 -42 -28 -27 -13 13 -5 43 11 43 6 0 13 -7
17 -16z m-3279 -6 c-6 -16 -55 -34 -65 -24 -10 10 26 36 50 36 10 0 17 -5 15
-12z m256 -29 c-3 -5 -10 -7 -15 -3 -5 3 -7 10 -3 15 3 5 10 7 15 3 5 -3 7
-10 3 -15z m836 1 c0 -5 -7 -10 -15 -10 -8 0 -15 5 -15 10 0 6 7 10 15 10 8 0
15 -4 15 -10z m-4592 -18 c2 -7 -6 -12 -17 -12 -21 0 -27 11 -14 24 9 9 26 2
31 -12z m9672 -6 c0 -28 15 -42 55 -52 60 -14 70 -44 15 -44 -40 0 -79 37 -87
83 -4 24 -2 37 6 37 6 0 11 -11 11 -24z m110 9 c0 -8 -4 -15 -10 -15 -5 0 -10
7 -10 15 0 8 5 15 10 15 6 0 10 -7 10 -15z m-5306 -10 c4 -11 -1 -15 -19 -15
-24 0 -32 10 -18 23 11 12 31 8 37 -8z m1146 5 c0 -5 -4 -10 -10 -10 -5 0 -10
5 -10 10 0 6 5 10 10 10 6 0 10 -4 10 -10z m-7915 -20 c-3 -5 -10 -10 -16 -10
-5 0 -9 5 -9 10 0 6 7 10 16 10 8 0 12 -4 9 -10z m6042 4 c-3 -3 -12 -4 -19
-1 -8 3 -5 6 6 6 11 1 17 -2 13 -5z m2913 2 c0 -16 -14 -36 -26 -36 -14 0 -19
22 -7 33 7 8 33 10 33 3z m110 -6 c0 -5 -4 -10 -10 -10 -5 0 -10 5 -10 10 0 6
5 10 10 10 6 0 10 -4 10 -10z m-2230 -39 c0 -33 -16 -49 -33 -32 -7 7 -7 18 1
36 16 34 32 32 32 -4z m195 8 c10 -14 1 -21 -19 -13 -9 3 -13 10 -10 15 7 12
21 11 29 -2z m573 -8 c3 -8 -1 -12 -9 -9 -7 2 -15 10 -17 17 -3 8 1 12 9 9 7
-2 15 -10 17 -17z m1532 5 c0 -3 -4 -8 -10 -11 -5 -3 -10 -1 -10 4 0 6 5 11
10 11 6 0 10 -2 10 -4z m-1195 -46 c-5 -8 -11 -8 -17 -2 -6 6 -7 16 -3 22 5 8
11 8 17 2 6 -6 7 -16 3 -22z m1192 -33 c-6 -19 -22 -6 -25 20 -2 27 -2 27 13
8 8 -10 14 -23 12 -28z m-104 -2 c-7 -21 -13 -19 -13 6 0 11 4 18 10 14 5 -3
7 -12 3 -20z m2991 0 c8 -8 21 -15 28 -15 7 -1 1 -7 -14 -15 -24 -14 -31 -13
-62 2 -28 13 -33 19 -25 30 15 17 54 17 73 -2z m-4209 -5 c3 -5 1 -10 -4 -10
-6 0 -11 5 -11 10 0 6 2 10 4 10 3 0 8 -4 11 -10z m1105 -7 c0 -10 -7 -40 -15
-67 -8 -27 -15 -62 -15 -78 0 -31 -15 -37 -29 -10 -9 17 8 136 23 161 11 17
36 13 36 -6z m300 -3 c0 -13 -5 -18 -15 -14 -16 7 -19 17 -8 27 12 13 23 7 23
-13z m-3380 -15 c0 -16 -17 -19 -44 -9 -22 9 -10 24 20 24 15 0 24 -6 24 -15z
m1165 -5 c3 -5 -3 -10 -14 -10 -12 0 -21 5 -21 10 0 6 6 10 14 10 8 0 18 -4
21 -10z m750 -21 c0 -7 -8 -15 -17 -17 -18 -3 -25 18 -11 32 10 10 28 1 28
-15z m4189 -24 c-4 -8 -12 -15 -20 -15 -8 0 -14 7 -14 15 0 8 9 15 20 15 13 0
18 -5 14 -15z m-4814 -5 c0 -5 -4 -10 -10 -10 -5 0 -10 5 -10 10 0 6 5 10 10
10 6 0 10 -4 10 -10z m2077 -17 c5 -15 -28 -26 -41 -13 -8 8 -7 14 4 20 17 11
32 8 37 -7z m-7817 -14 c0 -5 -4 -9 -10 -9 -5 0 -10 7 -10 16 0 8 5 12 10 9 6
-3 10 -10 10 -16z m4390 11 c0 -5 -5 -10 -11 -10 -5 0 -7 5 -4 10 3 6 8 10 11
10 2 0 4 -4 4 -10z m3474 -16 c4 -9 4 -19 2 -21 -8 -8 -26 8 -26 23 0 19 16
18 24 -2z m2606 -13 c0 -28 -11 -52 -21 -45 -16 9 -11 64 6 64 8 0 15 -9 15
-19z m110 -6 c20 -24 -1 -38 -28 -19 -12 8 -22 19 -22 25 0 15 36 10 50 -6z
m60 5 c0 -5 -4 -10 -9 -10 -6 0 -13 5 -16 10 -3 6 1 10 9 10 9 0 16 -4 16 -10z
m-4358 -32 c-15 -15 -26 -4 -18 18 5 13 9 15 18 6 9 -9 9 -15 0 -24z m4438 6
c0 -8 -4 -12 -10 -9 -5 3 -10 10 -10 16 0 5 5 9 10 9 6 0 10 -7 10 -16z
m-3130 -13 c0 -6 -4 -13 -10 -16 -5 -3 -10 1 -10 9 0 9 5 16 10 16 6 0 10 -4
10 -9z m150 0 c0 -6 -4 -13 -10 -16 -5 -3 -10 1 -10 9 0 9 5 16 10 16 6 0 10
-4 10 -9z m-1500 -32 c0 -5 -4 -9 -10 -9 -5 0 -10 7 -10 16 0 8 5 12 10 9 6
-3 10 -10 10 -16z m1430 17 c0 -3 -4 -8 -10 -11 -5 -3 -10 -1 -10 4 0 6 5 11
10 11 6 0 10 -2 10 -4z m-6669 -29 c-13 -13 -26 -3 -16 12 3 6 11 8 17 5 6 -4
6 -10 -1 -17z m9629 13 c0 -5 -4 -10 -10 -10 -5 0 -10 5 -10 10 0 6 5 10 10
10 6 0 10 -4 10 -10z m-80 -32 c0 -5 -4 -8 -10 -8 -5 0 -10 10 -10 23 0 18 2
19 10 7 5 -8 10 -18 10 -22z m-2730 12 c0 -5 -4 -10 -10 -10 -5 0 -10 5 -10
10 0 6 5 10 10 10 6 0 10 -4 10 -10z m-5420 -10 c0 -5 -7 -10 -16 -10 -8 0
-12 5 -9 10 3 6 10 10 16 10 5 0 9 -4 9 -10z m2398 -9 c4 -11 -3 -13 -29 -7
-51 10 -62 28 -15 24 23 -2 41 -9 44 -17z m-2308 0 c0 -6 -4 -13 -10 -16 -5
-3 -10 1 -10 9 0 9 5 16 10 16 6 0 10 -4 10 -9z m5180 -21 c28 0 31 -2 20 -15
-7 -8 -20 -15 -30 -15 -31 0 -80 22 -80 35 0 20 23 24 41 9 8 -8 30 -14 49
-14z m-4093 4 c9 -25 -12 -38 -31 -19 -9 9 -14 21 -11 26 10 14 35 10 42 -7z
m1698 6 c3 -5 21 -10 40 -10 39 0 49 -10 32 -34 -11 -16 -15 -15 -55 6 -23 13
-42 29 -42 36 0 14 16 16 25 2z m2510 -8 c0 -18 -20 -15 -23 4 -3 10 1 15 10
12 7 -3 13 -10 13 -16z m143 -10 c2 -13 -3 -25 -12 -28 -17 -7 -76 13 -76 25
0 17 28 32 55 29 22 -2 31 -9 33 -26z m2712 18 c0 -5 -4 -10 -10 -10 -5 0 -10
5 -10 10 0 6 5 10 10 10 6 0 10 -4 10 -10z m-12540 -51 c0 -5 -9 -9 -20 -9
-24 0 -35 22 -25 48 6 15 8 15 26 -7 10 -13 19 -27 19 -32z m6398 24 c2 -8 -5
-13 -17 -13 -21 0 -35 13 -24 24 10 10 36 3 41 -11z m-4498 -8 c0 -8 -7 -15
-15 -15 -8 0 -15 7 -15 15 0 8 7 15 15 15 8 0 15 -7 15 -15z m5410 5 c0 -5 -4
-10 -9 -10 -6 0 -13 5 -16 10 -3 6 1 10 9 10 9 0 16 -4 16 -10z m160 -16 c0
-8 -4 -12 -10 -9 -5 3 -10 10 -10 16 0 5 5 9 10 9 6 0 10 -7 10 -16z m-705 -4
c3 -5 -1 -10 -10 -10 -9 0 -13 5 -10 10 3 6 8 10 10 10 2 0 7 -4 10 -10z
m5629 -17 c4 -9 2 -21 -4 -27 -13 -13 -46 17 -36 33 11 16 33 13 40 -6z
m-2936 -31 c4 -25 -19 -30 -37 -9 -8 10 -7 17 1 25 17 17 32 10 36 -16z m3077
-24 c-3 -91 -4 -94 -31 -107 -35 -16 -40 -9 -21 31 8 18 19 51 22 73 9 45 13
55 24 55 5 0 8 -24 6 -52z m-4815 24 c17 -13 21 -24 16 -40 -7 -21 -26 -31
-26 -14 0 15 -41 53 -51 47 -10 -7 -12 8 -2 18 12 12 40 7 63 -11z m2055 -2
c-3 -5 -13 -10 -21 -10 -8 0 -14 5 -14 10 0 6 9 10 21 10 11 0 17 -4 14 -10z
m-2455 -10 c0 -5 -9 -10 -21 -10 -11 0 -17 5 -14 10 3 6 13 10 21 10 8 0 14
-4 14 -10z m4974 -7 c9 -24 -9 -39 -29 -23 -8 7 -15 19 -15 26 0 20 37 17 44
-3z m-5909 -2 c3 -5 1 -12 -5 -16 -5 -3 -10 1 -10 9 0 18 6 21 15 7z m1168 -5
c6 -16 -2 -28 -14 -20 -12 7 -11 34 0 34 5 0 11 -6 14 -14z m-2013 -31 c0 -8
-4 -15 -10 -15 -5 0 -10 7 -10 15 0 8 5 15 10 15 6 0 10 -7 10 -15z m2320 -9
c0 -19 -26 -27 -39 -12 -13 15 -4 26 21 26 10 0 18 -6 18 -14z m1565 -16 c3
-5 -1 -10 -9 -10 -9 0 -16 5 -16 10 0 6 4 10 9 10 6 0 13 -4 16 -10z m-6383
-32 c-12 -12 -35 -1 -27 12 3 5 13 6 21 3 10 -4 12 -9 6 -15z m4558 6 c0 -8
-5 -12 -10 -9 -6 4 -8 11 -5 16 9 14 15 11 15 -7z m750 -5 c0 -5 -4 -9 -10 -9
-5 0 -10 7 -10 16 0 8 5 12 10 9 6 -3 10 -10 10 -16z m-986 -5 c7 -19 -2 -37
-15 -29 -12 8 -12 45 0 45 5 0 12 -7 15 -16z m-1766 -12 c2 -7 -6 -12 -17 -12
-21 0 -27 11 -14 24 9 9 26 2 31 -12z m6797 2 c19 -19 15 -38 -9 -42 -18 -4
-45 23 -46 46 0 17 36 15 55 -4z m-2875 -18 c0 -21 -21 -31 -30 -15 -5 7 -6
17 -4 21 9 14 34 9 34 -6z m2731 -29 c-8 -8 -11 -7 -11 4 0 20 13 34 18 19 3
-7 -1 -17 -7 -23z m-10383 -4 c-4 -23 -48 -31 -48 -10 0 9 6 18 13 20 25 11
38 7 35 -10z m82 3 c0 -21 -20 -30 -33 -17 -9 9 -8 14 3 21 21 14 30 12 30 -4z
m7673 -21 c-25 -31 -53 -46 -53 -29 0 18 44 64 61 64 18 0 18 -3 -8 -35z m96
11 c8 -10 8 -16 -3 -25 -10 -9 -16 -8 -26 3 -12 15 -6 36 9 36 5 0 14 -6 20
-14z m-1463 -21 c-3 -9 -11 -13 -16 -10 -8 5 -7 11 1 21 14 18 24 11 15 -11z
m-6225 -28 c-8 -8 -11 -7 -11 4 0 20 13 34 18 19 3 -7 -1 -17 -7 -23z m7449
24 c0 -13 -30 -22 -43 -14 -7 4 -2 10 13 14 14 4 26 7 28 8 1 1 2 -3 2 -8z
m347 -7 c3 -9 0 -20 -8 -24 -18 -12 -50 7 -43 25 8 20 43 19 51 -1z m113 -10
c0 -16 -16 -19 -25 -4 -8 13 4 32 16 25 5 -4 9 -13 9 -21z m-7826 -1 c9 -22
-10 -41 -25 -26 -13 13 -5 43 10 43 5 0 12 -8 15 -17z m10120 8 c11 -18 -6
-41 -30 -41 -17 0 -24 6 -24 18 0 10 3 22 7 25 9 10 41 8 47 -2z m71 -21 c-5
-8 -11 -8 -17 -2 -6 6 -7 16 -3 22 5 8 11 8 17 2 6 -6 7 -16 3 -22z m-3975 -5
c0 -8 -4 -15 -10 -15 -5 0 -10 7 -10 15 0 8 5 15 10 15 6 0 10 -7 10 -15z
m-8330 -5 c0 -5 -2 -10 -4 -10 -3 0 -8 5 -11 10 -3 6 -1 10 4 10 6 0 11 -4 11
-10z m12550 -11 c0 -6 -4 -7 -10 -4 -5 3 -10 11 -10 16 0 6 5 7 10 4 6 -3 10
-11 10 -16z m-4400 -34 c0 -8 -6 -15 -14 -15 -17 0 -28 14 -19 24 12 12 33 6
33 -9z m-2520 -4 c0 -6 -4 -13 -10 -16 -5 -3 -10 1 -10 9 0 9 5 16 10 16 6 0
10 -4 10 -9z m6738 -13 c3 -13 -3 -18 -22 -18 -27 0 -41 14 -31 31 10 16 49 6
53 -13z m110 -1 c2 -10 -3 -17 -12 -17 -18 0 -29 16 -21 31 9 14 29 6 33 -14z
m-10426 -12 c0 -5 -5 -11 -11 -13 -6 -2 -11 4 -11 13 0 9 5 15 11 13 6 -2 11
-8 11 -13z m8948 -282 c0 -7 -175 90 -178 98 -2 5 -30 40 -63 79 -55 65 -69
97 -52 113 5 6 293 -279 293 -290z m1160 286 c0 -20 -21 -49 -35 -49 -26 0
-29 23 -5 42 25 20 40 23 40 7z m410 -38 c0 -12 -6 -9 -20 9 -26 33 -26 48 0
25 11 -10 20 -25 20 -34z m-8120 20 c0 -12 -26 -21 -58 -21 -26 1 -26 1 -8 15
22 16 66 20 66 6z m4917 -23 c-3 -8 -6 -5 -6 6 -1 11 2 17 5 13 3 -3 4 -12 1
-19z m383 12 c0 -5 -4 -10 -10 -10 -5 0 -10 5 -10 10 0 6 5 10 10 10 6 0 10
-4 10 -10z m2504 -45 c9 -14 40 -37 69 -51 82 -42 116 -72 123 -110 5 -29 10
-34 35 -34 38 0 37 -13 -3 -41 l-31 -23 -21 26 c-12 14 -29 28 -40 32 -15 5
-17 13 -12 40 5 28 2 39 -16 55 -27 26 -33 26 -74 1 -30 -19 -33 -19 -42 -4
-7 13 -15 14 -47 5 -27 -7 -44 -7 -58 1 -20 10 -19 11 6 27 15 8 27 22 27 29
0 20 39 72 55 72 7 0 20 -11 29 -25z m-4136 -2 c-4 -22 -22 -20 -26 1 -2 10 3
16 13 16 10 0 15 -7 13 -17z m-3591 -70 c-2 -16 -4 -3 -4 27 0 30 2 43 4 28 2
-16 2 -40 0 -55z m7953 47 c0 -16 0 -33 1 -37 0 -5 -7 -9 -15 -11 -17 -4 -22
31 -10 62 10 26 24 18 24 -14z m-4146 -1 c-3 -5 -10 -7 -15 -3 -5 3 -7 10 -3
15 3 5 10 7 15 3 5 -3 7 -10 3 -15z m2596 -11 c24 -39 25 -48 6 -48 -18 0 -46
38 -46 62 0 28 18 21 40 -14z m542 17 c4 -33 -166 -105 -247 -105 -51 0 -131
28 -171 59 -38 30 -4 28 50 -3 49 -28 126 -40 175 -26 20 5 66 28 101 49 63
39 90 47 92 26z m-9592 -5 c0 -5 -4 -10 -10 -10 -5 0 -10 5 -10 10 0 6 5 10
10 10 6 0 10 -4 10 -10z m980 -10 c0 -5 -4 -10 -10 -10 -5 0 -10 5 -10 10 0 6
5 10 10 10 6 0 10 -4 10 -10z m6980 -11 c0 -5 -4 -9 -10 -9 -5 0 -10 7 -10 16
0 8 5 12 10 9 6 -3 10 -10 10 -16z m-5505 1 c3 -5 1 -10 -4 -10 -6 0 -11 5
-11 10 0 6 2 10 4 10 3 0 8 -4 11 -10z m3145 0 c0 -5 -2 -10 -4 -10 -3 0 -8 5
-11 10 -3 6 -1 10 4 10 6 0 11 -4 11 -10z m2125 -8 c0 -18 -20 -15 -23 4 -3
10 1 15 10 12 7 -3 13 -10 13 -16z m2331 -50 c-17 -51 -74 -138 -157 -241 -25
-31 -54 -70 -64 -88 -19 -32 -43 -49 -53 -38 -3 3 14 33 38 68 103 146 190
279 190 290 0 7 9 27 21 46 30 50 46 27 25 -37z m142 52 c-9 -9 -21 -13 -28
-9 -14 9 5 25 30 25 12 0 12 -3 -2 -16z m-11920 -6 c-6 -16 -33 -22 -56 -13
-14 5 -14 7 -2 15 22 14 62 12 58 -2z m9286 -23 c-16 -25 -42 -36 -28 -12 14
23 27 37 35 37 5 0 2 -11 -7 -25z m-121 -1 c9 -9 -4 -35 -14 -28 -5 3 -9 12
-9 20 0 14 12 19 23 8z m2762 -36 c49 -35 51 -39 33 -68 -16 -25 -3 -38 22
-22 25 15 25 8 6 -67 -10 -36 -12 -61 -5 -77 7 -20 5 -26 -9 -30 -9 -3 -26
-10 -36 -16 -20 -11 -20 -5 0 104 5 31 2 40 -20 63 -30 30 -32 38 -11 55 20
17 19 30 -4 30 -24 0 -45 25 -37 45 7 20 9 20 61 -17z m-10013 -13 c0 -5 -5
-11 -11 -13 -6 -2 -11 4 -11 13 0 9 5 15 11 13 6 -2 11 -8 11 -13z m-112 -16
c0 -6 -4 -7 -10 -4 -5 3 -10 11 -10 16 0 6 5 7 10 4 6 -3 10 -11 10 -16z
m8036 -26 c-10 -10 -19 5 -10 18 6 11 8 11 12 0 2 -7 1 -15 -2 -18z m2289 -23
c25 -9 27 -14 22 -53 -3 -31 3 -59 24 -109 31 -71 40 -163 17 -156 -7 3 -17
18 -23 34 -5 16 -10 30 -11 32 -1 2 -11 -2 -22 -9 -11 -7 -27 -9 -37 -5 -15 6
-15 9 8 26 14 11 28 29 32 39 8 28 -12 72 -48 102 -27 23 -30 29 -18 43 11 13
11 19 1 31 -25 30 6 44 55 25z m-1167 -22 c7 -7 12 -18 12 -25 0 -11 -6 -10
-30 2 -16 9 -30 20 -30 25 0 14 34 12 48 -2z m-7008 -8 c0 -5 -4 -10 -10 -10
-5 0 -10 5 -10 10 0 6 5 10 10 10 6 0 10 -4 10 -10z m7165 -16 c14 -15 25 -30
25 -34 0 -6 -67 -30 -86 -30 -5 0 5 11 21 24 l30 24 -28 11 c-16 6 -34 11 -40
11 -19 0 16 20 36 20 10 0 29 -12 42 -26z m-4950 7 c3 -5 1 -12 -5 -16 -5 -3
-10 1 -10 9 0 18 6 21 15 7z m-3198 -27 c2 -6 -8 -19 -23 -29 -26 -17 -28 -17
-40 0 -10 14 -11 22 -2 32 13 16 60 14 65 -3z m-1167 -36 c0 -29 -2 -31 -15
-17 -9 9 -13 23 -9 32 10 28 24 19 24 -15z m100 -1 c0 -18 -2 -19 -10 -7 -13
20 -13 43 0 35 6 -3 10 -16 10 -28z m9955 13 c3 -5 1 -10 -4 -10 -6 0 -11 5
-11 10 0 6 2 10 4 10 3 0 8 -4 11 -10z m-2635 -40 c-19 -12 -35 3 -26 26 6 17
8 17 24 0 15 -15 15 -18 2 -26z m290 14 c0 -8 -4 -12 -10 -9 -5 3 -10 10 -10
16 0 5 5 9 10 9 6 0 10 -7 10 -16z m1329 -20 c24 -16 30 -24 18 -24 -27 0 -80
25 -97 45 -14 17 -13 18 14 11 16 -4 45 -18 65 -32z m689 18 c2 -7 -6 -12 -17
-12 -21 0 -27 11 -14 24 9 9 26 2 31 -12z m-9808 -11 c0 -29 -24 -45 -40 -26
-10 12 -10 18 0 30 17 21 40 19 40 -4z m1455 9 c3 -5 -1 -10 -10 -10 -9 0 -13
5 -10 10 3 6 8 10 10 10 2 0 7 -4 10 -10z m9114 -26 c24 -52 2 -117 -27 -81
-8 10 -17 81 -13 109 2 15 29 -4 40 -28z m-12223 15 c10 -17 -23 -46 -38 -31
-8 8 -8 15 2 27 15 18 26 19 36 4z m9489 -29 c-5 -23 -10 -29 -18 -21 -7 7 -7
18 2 37 15 34 25 25 16 -16z m-447 2 c2 -12 -1 -22 -6 -22 -15 0 -34 28 -27
40 10 17 30 6 33 -18z m-3693 8 c3 -5 1 -10 -4 -10 -6 0 -11 5 -11 10 0 6 2
10 4 10 3 0 8 -4 11 -10z m6362 -10 c-38 -30 -43 -57 -16 -86 26 -28 20 -30
-22 -9 -16 9 -34 13 -38 10 -15 -8 -41 6 -41 22 0 9 6 13 15 9 9 -3 19 3 26
17 21 41 42 57 72 57 l30 0 -26 -20z m-3198 -16 c66 -23 88 -26 173 -22 99 4
111 -1 85 -31 -53 -62 -71 -213 -64 -537 4 -182 3 -254 -6 -263 -16 -16 -72
-14 -87 5 -11 12 -11 27 -1 79 14 69 9 209 -14 411 -11 99 -17 120 -56 194
-23 46 -60 105 -81 131 -55 70 -56 70 51 33z m-6729 -5 c0 -5 -7 -9 -15 -9
-15 0 -20 12 -9 23 8 8 24 -1 24 -14z m8050 11 c0 -5 -4 -10 -10 -10 -5 0 -10
5 -10 10 0 6 5 10 10 10 6 0 10 -4 10 -10z m1200 1 c0 -11 -17 -17 -76 -26
-47 -7 -69 10 -32 24 30 13 108 14 108 2z m-323 -34 c23 -21 22 -37 -2 -37
-21 0 -69 45 -61 58 8 14 34 5 63 -21z m-7787 13 c0 -5 -4 -10 -10 -10 -5 0
-10 5 -10 10 0 6 5 10 10 10 6 0 10 -4 10 -10z m4390 0 c0 -5 -2 -10 -4 -10
-3 0 -8 5 -11 10 -3 6 -1 10 4 10 6 0 11 -4 11 -10z m1870 0 c0 -5 -4 -10 -10
-10 -5 0 -10 5 -10 10 0 6 5 10 10 10 6 0 10 -4 10 -10z m2092 -10 c-16 -15
-20 -28 -16 -49 6 -28 5 -29 -77 -55 -109 -33 -145 -40 -153 -28 -10 17 21 33
85 42 67 10 94 25 69 40 -8 5 -28 7 -45 4 -28 -4 -28 -3 10 16 22 11 47 20 55
20 8 0 26 7 40 15 39 22 58 19 32 -5z m84 3 c12 -17 15 -17 44 -1 25 14 30 15
30 3 0 -17 -88 -119 -107 -123 -21 -5 -15 25 8 42 21 15 22 35 4 79 -4 9 -4
17 0 17 4 0 14 -8 21 -17z m-10026 -18 c0 -8 -2 -15 -4 -15 -2 0 -6 7 -10 15
-3 8 -1 15 4 15 6 0 10 -7 10 -15z m9738 3 c-5 -14 -65 -34 -75 -25 -3 4 0 13
7 22 15 18 74 21 68 3z m-157 -37 c29 -30 31 -54 3 -65 -10 -4 -14 3 -14 24 0
17 -4 31 -10 32 -32 4 -35 2 -32 -30 5 -45 -18 -50 -57 -12 -17 17 -31 33 -31
36 0 2 14 4 30 4 19 0 30 5 30 14 0 15 14 24 38 25 8 1 27 -12 43 -28z m861 4
c0 -5 -5 -11 -11 -13 -6 -2 -11 4 -11 13 0 9 5 15 11 13 6 -2 11 -8 11 -13z
m76 3 c-3 -7 -13 -15 -24 -17 -16 -3 -17 -1 -5 13 16 19 34 21 29 4z m59 -25
c-3 -10 -5 -4 -5 12 0 17 2 24 5 18 2 -7 2 -21 0 -30z m-2824 -10 c-4 -10 -9
-11 -16 -4 -5 5 -7 18 -3 28 6 14 9 15 16 4 4 -8 6 -21 3 -28z m319 22 c0 -5
-5 -11 -11 -13 -6 -2 -11 4 -11 13 0 9 5 15 11 13 6 -2 11 -8 11 -13z m-7784
-50 c-3 -3 -9 2 -12 12 -6 14 -5 15 5 6 7 -7 10 -15 7 -18z m10635 10 c4 -8 2
-17 -3 -20 -6 -4 -10 3 -10 14 0 25 6 27 13 6z m-12043 -10 c0 -8 -4 -15 -10
-15 -5 0 -10 7 -10 15 0 8 5 15 10 15 6 0 10 -7 10 -15z m11780 -25 c0 -5 -2
-10 -4 -10 -3 0 -8 5 -11 10 -3 6 -1 10 4 10 6 0 11 -4 11 -10z m-610 -12 c-1
-43 -46 -61 -122 -48 -80 14 -144 2 -142 -26 1 -10 5 -27 9 -36 4 -11 3 -18
-4 -18 -14 0 -51 41 -51 56 0 39 83 69 169 60 38 -4 66 -1 86 8 38 18 55 19
55 4z m-9095 -8 c4 -6 -13 -10 -44 -10 -27 0 -53 5 -56 10 -4 6 13 10 44 10
27 0 53 -4 56 -10z m4249 -15 c3 -9 0 -15 -9 -15 -8 0 -15 7 -15 15 0 8 4 15
9 15 5 0 11 -7 15 -15z m2651 5 c3 -5 -1 -10 -9 -10 -9 0 -16 5 -16 10 0 6 4
10 9 10 6 0 13 -4 16 -10z m2730 0 c-3 -5 -15 -10 -26 -10 -11 0 -17 5 -14 10
3 6 15 10 26 10 11 0 17 -4 14 -10z m-4895 -31 c0 -5 -4 -9 -10 -9 -5 0 -10 7
-10 16 0 8 5 12 10 9 6 -3 10 -10 10 -16z m1090 2 c0 -6 -4 -13 -10 -16 -5 -3
-10 1 -10 9 0 9 5 16 10 16 6 0 10 -4 10 -9z m3878 -23 c2 -18 -3 -30 -16 -37
-11 -6 -22 -7 -26 -4 -8 9 -8 58 1 67 15 14 38 0 41 -26z m-390 10 c-6 -16
-36 -34 -44 -25 -9 9 15 37 33 37 8 0 13 -5 11 -12z m-5801 -53 c2 -43 1 -47
-10 -31 -29 45 -59 75 -80 79 -12 3 3 4 33 3 l55 -1 2 -50z m3187 39 c11 -28
6 -54 -8 -54 -21 0 -29 17 -22 46 7 27 21 31 30 8z m1163 10 c-3 -3 -12 -4
-19 -1 -8 3 -5 6 6 6 11 1 17 -2 13 -5z m1563 -19 c0 -8 -6 -15 -14 -15 -17 0
-28 14 -19 24 12 12 33 6 33 -9z m590 0 c16 -19 0 -19 -26 0 -16 12 -16 14 -3
15 9 0 22 -7 29 -15z m-6655 -39 c20 -9 34 -20 30 -26 -9 -15 -108 -12 -130 4
-17 12 -17 16 -5 31 15 19 44 16 105 -9z m5600 4 c3 -5 -1 -10 -10 -10 -9 0
-13 5 -10 10 3 6 8 10 10 10 2 0 7 -4 10 -10z m181 -36 c-3 -8 -10 -14 -16
-14 -14 0 -13 33 3 49 10 10 13 9 15 -4 2 -9 1 -23 -2 -31z m-2039 -24 c5 -34
3 -42 -8 -38 -9 3 -15 23 -17 54 -4 61 17 48 25 -16z m403 34 c0 -16 -16 -19
-25 -4 -8 13 4 32 16 25 5 -4 9 -13 9 -21z m-658 -1 c18 -16 25 -43 10 -43
-10 0 -34 20 -51 43 -12 15 -11 17 4 17 10 0 27 -7 37 -17z m2373 -3 c3 -5 1
-10 -4 -10 -6 0 -11 5 -11 10 0 6 2 10 4 10 3 0 8 -4 11 -10z m599 -33 c-3 -9
-10 -17 -15 -17 -14 0 -22 27 -15 47 6 15 8 15 22 2 8 -9 12 -23 8 -32z
m-11654 29 c0 -3 -4 -8 -10 -11 -5 -3 -10 -1 -10 4 0 6 5 11 10 11 6 0 10 -2
10 -4z m1896 -41 c0 -11 1 -28 2 -38 1 -9 21 -38 44 -62 39 -43 41 -50 49
-128 14 -149 11 -283 -7 -298 -10 -8 -21 -10 -30 -3 -11 7 -16 42 -19 154 -5
154 -11 200 -26 200 -10 0 -14 -102 -10 -251 l3 -97 -98 -6 c-55 -4 -120 -9
-145 -11 l-46 -5 -6 121 c-12 218 -11 236 28 329 19 47 35 90 35 97 0 17 25
21 130 20 87 -2 95 -4 96 -22z m234 15 c0 -5 -4 -10 -10 -10 -5 0 -10 5 -10
10 0 6 5 10 10 10 6 0 10 -4 10 -10z m6339 -16 c-14 -18 -24 -11 -15 11 3 9
11 13 16 10 8 -5 7 -11 -1 -21z m2634 1 c8 -18 -11 -31 -25 -17 -11 11 -3 32
12 32 4 0 10 -7 13 -15z m-1593 -26 c0 -5 -4 -9 -10 -9 -5 0 -10 7 -10 16 0 8
5 12 10 9 6 -3 10 -10 10 -16z m1970 -1 c25 -27 13 -42 -23 -29 -17 7 -27 18
-27 31 0 26 24 26 50 -2z m-7933 -10 c-3 -8 -6 -5 -6 6 -1 11 2 17 5 13 3 -3
4 -12 1 -19z m5683 14 c0 -13 -12 -22 -22 -16 -10 6 -1 24 13 24 5 0 9 -4 9
-8z m-2419 -35 c-13 -13 -26 -3 -16 12 3 6 11 8 17 5 6 -4 6 -10 -1 -17z
m1886 -31 c-4 -9 -10 -16 -15 -16 -13 0 -33 50 -26 62 10 16 48 -27 41 -46z
m55 22 c-15 -15 -26 -4 -18 18 5 13 9 15 18 6 9 -9 9 -15 0 -24z m2198 -4 c0
-16 -26 -19 -35 -4 -4 6 -4 18 -1 27 5 12 9 13 21 3 8 -7 15 -19 15 -26z
m-2440 16 c0 -5 -4 -10 -10 -10 -5 0 -10 5 -10 10 0 6 5 10 10 10 6 0 10 -4
10 -10z m2850 -10 c0 -5 -2 -10 -4 -10 -3 0 -8 5 -11 10 -3 6 -1 10 4 10 6 0
11 -4 11 -10z m450 6 c0 -3 -4 -8 -10 -11 -5 -3 -10 -1 -10 4 0 6 5 11 10 11
6 0 10 -2 10 -4z m-3507 -107 c-7 -65 -22 -90 -24 -37 -2 58 3 123 9 132 12
20 21 -38 15 -95z m1267 86 c0 -8 -4 -15 -10 -15 -5 0 -10 7 -10 15 0 8 5 15
10 15 6 0 10 -7 10 -15z m1102 -27 c-15 -15 -26 -4 -18 18 5 13 9 15 18 6 9
-9 9 -15 0 -24z m-10812 4 c13 -10 21 -26 19 -37 -4 -17 -7 -16 -32 10 -41 45
-32 63 13 27z m5525 -4 c14 -6 27 -21 30 -32 2 -12 7 -103 10 -203 l6 -183
-83 0 c-46 0 -100 3 -121 7 l-38 6 4 194 c3 107 8 198 13 203 9 8 51 15 121
18 18 1 44 -3 58 -10z m293 -13 c35 -7 43 -30 13 -38 -17 -4 -81 17 -81 27 0
19 14 35 24 27 6 -5 26 -12 44 -16z m262 10 c0 -16 -9 -19 -34 -9 -20 8 -11
24 15 24 10 0 19 -7 19 -15z m4460 5 c0 -5 -7 -10 -15 -10 -8 0 -15 5 -15 10
0 6 7 10 15 10 8 0 15 -4 15 -10z m-7965 -10 c3 -5 1 -10 -4 -10 -6 0 -11 5
-11 10 0 6 2 10 4 10 3 0 8 -4 11 -10z m6346 -6 c12 -14 11 -16 -5 -13 -11 2
-21 10 -24 17 -5 17 13 15 29 -4z m2079 -4 c0 -5 -5 -10 -11 -10 -5 0 -7 5 -4
10 3 6 8 10 11 10 2 0 4 -4 4 -10z m-2850 -16 c0 -8 -4 -12 -10 -9 -5 3 -10
10 -10 16 0 5 5 9 10 9 6 0 10 -7 10 -16z m3067 -23 c13 -27 2 -61 -21 -61
-11 0 -36 59 -36 84 0 18 46 -1 57 -23z m419 13 c20 -5 22 -9 13 -20 -6 -8
-15 -29 -18 -47 -5 -23 -12 -32 -26 -32 -18 0 -20 7 -21 58 0 46 3 57 14 52 8
-3 25 -8 38 -11z m-4916 -4 c0 -5 -4 -10 -10 -10 -5 0 -10 5 -10 10 0 6 5 10
10 10 6 0 10 -4 10 -10z m1180 0 c0 -5 -2 -10 -4 -10 -3 0 -8 5 -11 10 -3 6
-1 10 4 10 6 0 11 -4 11 -10z m-3974 -11 c3 -6 1 -16 -4 -21 -13 -13 -45 8
-36 23 7 12 31 11 40 -2z m3802 0 c-2 -6 -8 -10 -13 -10 -5 0 -11 4 -13 10 -2
6 4 11 13 11 9 0 15 -5 13 -11z m70 -10 c2 -12 -33 -39 -52 -39 -1 0 -1 14 2
31 4 24 9 29 26 27 11 -2 22 -10 24 -19z m-1668 -19 c0 -11 -7 -20 -15 -20
-18 0 -19 12 -3 28 16 16 18 15 18 -8z m-6210 -21 c0 -11 -4 -18 -10 -14 -5 3
-7 12 -3 20 7 21 13 19 13 -6z m8937 -15 c-9 -9 -28 6 -21 18 4 6 10 6 17 -1
6 -6 8 -13 4 -17z m623 22 c0 -3 -4 -8 -10 -11 -5 -3 -10 -1 -10 4 0 6 5 11
10 11 6 0 10 -2 10 -4z m2380 -43 c0 -21 -28 -15 -44 9 -24 33 -19 39 14 20
16 -9 30 -23 30 -29z m-4737 22 c7 -16 -8 -29 -23 -20 -15 9 -12 35 4 35 8 0
16 -7 19 -15z m1427 5 c0 -5 -4 -10 -10 -10 -5 0 -10 5 -10 10 0 6 5 10 10 10
6 0 10 -4 10 -10z m810 1 c0 -15 -19 -23 -38 -16 -14 5 -14 7 -2 15 19 12 40
13 40 1z m-2597 -16 c4 -8 2 -17 -3 -20 -6 -4 -10 3 -10 14 0 25 6 27 13 6z
m4521 0 c-4 -8 -10 -12 -15 -9 -14 8 -10 24 6 24 9 0 12 -6 9 -15z m676 -6 c0
-5 -4 -9 -10 -9 -5 0 -10 7 -10 16 0 8 5 12 10 9 6 -3 10 -10 10 -16z m-11250
-10 c0 -5 -7 -9 -15 -9 -15 0 -20 12 -9 23 8 8 24 -1 24 -14z m5160 2 c0 -5
-7 -11 -15 -15 -9 -3 -15 0 -15 9 0 8 7 15 15 15 8 0 15 -4 15 -9z m5868 -10
c3 -8 -1 -12 -9 -9 -7 2 -15 10 -17 17 -3 8 1 12 9 9 7 -2 15 -10 17 -17z
m-12223 -21 c-5 -8 -11 -8 -17 -2 -6 6 -7 16 -3 22 5 8 11 8 17 2 6 -6 7 -16
3 -22z m4375 9 c0 -5 -9 -9 -20 -9 -22 0 -27 16 -7 23 15 5 27 -1 27 -14z
m2047 -14 c-4 -8 -11 -15 -17 -15 -7 0 -7 6 0 21 13 23 26 19 17 -6z m-6257 5
c0 -5 -4 -10 -10 -10 -5 0 -10 5 -10 10 0 6 5 10 10 10 6 0 10 -4 10 -10z
m7570 -15 c0 -15 -18 -30 -27 -22 -2 3 -2 15 2 26 7 23 25 19 25 -4z m-7689
-28 c-8 -8 -11 -5 -11 9 0 27 14 41 18 19 2 -9 -1 -22 -7 -28z m8149 27 c0 -8
-4 -12 -10 -9 -5 3 -10 10 -10 16 0 5 5 9 10 9 6 0 10 -7 10 -16z m734 -9 c-6
-16 -24 -21 -24 -7 0 11 11 22 21 22 5 0 6 -7 3 -15z m286 1 c0 -15 -18 -31
-26 -23 -7 7 7 37 17 37 5 0 9 -6 9 -14z m-588 -28 c-15 -15 -26 -4 -18 18 5
13 9 15 18 6 9 -9 9 -15 0 -24z m976 9 c8 -42 -5 -49 -48 -27 -57 29 -53 53
10 48 24 -2 36 -8 38 -21z m182 4 c0 -10 -7 -24 -15 -31 -12 -10 -15 -10 -15
3 0 23 11 47 21 47 5 0 9 -8 9 -19z m2157 -18 c-16 -16 -17 -16 -17 3 0 26 11
37 24 24 7 -7 5 -16 -7 -27z m-5683 14 c19 -14 13 -47 -9 -47 -15 0 -45 27
-45 39 0 23 28 27 54 8z m1856 3 c0 -5 -4 -10 -10 -10 -5 0 -10 5 -10 10 0 6
5 10 10 10 6 0 10 -4 10 -10z m2270 -12 c0 -13 -23 -5 -28 10 -2 7 2 10 12 6
9 -3 16 -11 16 -16z m85 11 c10 -15 -1 -23 -20 -15 -9 3 -13 10 -10 16 8 13
22 13 30 -1z m1341 0 c10 -17 -23 -46 -37 -32 -7 7 -9 19 -6 27 7 18 33 21 43
5z m-1573 -24 c-7 -19 -33 -20 -33 -1 0 15 20 26 32 19 4 -2 5 -10 1 -18z
m1827 10 c0 -8 -4 -15 -10 -15 -5 0 -10 7 -10 15 0 8 5 15 10 15 6 0 10 -7 10
-15z m300 1 c0 -3 -4 -8 -10 -11 -5 -3 -10 -1 -10 4 0 6 5 11 10 11 6 0 10 -2
10 -4z m-6880 -10 c0 -3 -4 -8 -10 -11 -5 -3 -10 -1 -10 4 0 6 5 11 10 11 6 0
10 -2 10 -4z m85 -6 c-3 -5 -10 -10 -16 -10 -5 0 -9 5 -9 10 0 6 7 10 16 10 8
0 12 -4 9 -10z m3356 -43 c-18 -18 -25 1 -11 30 l14 28 4 -24 c2 -13 -1 -28
-7 -34z m2159 34 c12 -24 14 -141 1 -141 -21 0 -31 31 -29 94 3 68 10 80 28
47z m500 -7 c0 -8 -4 -14 -10 -14 -5 0 -10 9 -10 21 0 11 5 17 10 14 6 -3 10
-13 10 -21z m600 11 c0 -8 -4 -15 -10 -15 -5 0 -10 7 -10 15 0 8 5 15 10 15 6
0 10 -7 10 -15z m-11830 -5 c0 -5 -4 -10 -10 -10 -5 0 -10 5 -10 10 0 6 5 10
10 10 6 0 10 -4 10 -10z m1790 -20 c0 -11 -7 -20 -15 -20 -15 0 -21 21 -8 33
12 13 23 7 23 -13z m4270 1 c6 -12 6 -22 1 -25 -12 -8 -43 23 -36 35 10 15 24
10 35 -10z m2855 9 c-3 -5 -13 -10 -21 -10 -8 0 -14 5 -14 10 0 6 9 10 21 10
11 0 17 -4 14 -10z m1455 -6 c0 -8 -4 -12 -10 -9 -5 3 -10 10 -10 16 0 5 5 9
10 9 6 0 10 -7 10 -16z m564 10 c28 -11 17 -24 -19 -24 -34 0 -47 13 -22 23
18 8 23 8 41 1z m658 -26 c-9 -9 -12 -7 -12 12 0 19 3 21 12 12 9 -9 9 -15 0
-24z m-3500 7 c0 -5 -5 -11 -11 -13 -6 -2 -11 4 -11 13 0 9 5 15 11 13 6 -2
11 -8 11 -13z m139 -8 c-13 -13 -26 -3 -16 12 3 6 11 8 17 5 6 -4 6 -10 -1
-17z m-8051 3 c0 -5 -2 -10 -4 -10 -3 0 -8 5 -11 10 -3 6 -1 10 4 10 6 0 11
-4 11 -10z m7155 0 c-3 -5 -11 -10 -16 -10 -6 0 -7 5 -4 10 3 6 11 10 16 10 6
0 7 -4 4 -10z m2955 -9 c0 -22 -15 -35 -30 -26 -7 4 -7 13 0 26 14 25 30 25
30 0z m1690 9 c0 -5 -7 -10 -15 -10 -8 0 -15 5 -15 10 0 6 7 10 15 10 8 0 15
-4 15 -10z m-6910 -26 c0 -8 -4 -14 -10 -14 -5 0 -10 9 -10 21 0 11 5 17 10
14 6 -3 10 -13 10 -21z m6258 9 c-2 -10 -10 -18 -18 -18 -8 0 -16 8 -18 18 -2
12 3 17 18 17 15 0 20 -5 18 -17z m440 11 c34 -10 26 -28 -18 -42 -53 -16 -60
-15 -60 8 0 31 34 45 78 34z m-11898 -14 c0 -5 -4 -10 -10 -10 -5 0 -10 5 -10
10 0 6 5 10 10 10 6 0 10 -4 10 -10z m8020 -6 c0 -17 -22 -14 -28 4 -2 7 3 12
12 12 9 0 16 -7 16 -16z m1131 -31 c-9 -15 -10 -12 -10 17 0 29 1 32 10 18 7
-12 7 -24 0 -35z m2417 24 c2 -11 -3 -17 -16 -17 -26 0 -34 11 -20 27 14 17
32 12 36 -10z m-11614 4 c8 -13 -4 -42 -15 -35 -12 7 -12 44 0 44 6 0 12 -4
15 -9z m936 -1 c0 -5 -4 -10 -10 -10 -5 0 -10 5 -10 10 0 6 5 10 10 10 6 0 10
-4 10 -10z m9090 6 c0 -11 -19 -15 -25 -6 -3 5 1 10 9 10 9 0 16 -2 16 -4z
m-9695 -31 l30 -25 -25 0 c-28 0 -50 16 -50 37 0 19 11 16 45 -12z m7012 -1
c2 -5 -3 -19 -11 -29 -14 -19 -15 -19 -21 -2 -4 9 -4 24 -1 33 6 16 27 15 33
-2z m-119 -17 c2 -11 -3 -17 -17 -17 -23 0 -35 15 -26 31 10 15 39 6 43 -14z
m3947 14 c3 -5 1 -12 -5 -16 -5 -3 -10 1 -10 9 0 18 6 21 15 7z m-10215 -21
c0 -5 -4 -10 -10 -10 -5 0 -10 5 -10 10 0 6 5 10 10 10 6 0 10 -4 10 -10z
m1980 6 c0 -3 -4 -8 -10 -11 -5 -3 -10 -1 -10 4 0 6 5 11 10 11 6 0 10 -2 10
-4z m1270 -6 c0 -5 -5 -10 -11 -10 -5 0 -7 5 -4 10 3 6 8 10 11 10 2 0 4 -4 4
-10z m3355 1 c3 -5 1 -12 -5 -16 -5 -3 -10 1 -10 9 0 18 6 21 15 7z m-6059
-15 c10 -8 16 -17 12 -21 -8 -8 -48 13 -48 25 0 14 13 12 36 -4z m6694 4 c0
-5 -4 -10 -10 -10 -5 0 -10 5 -10 10 0 6 5 10 10 10 6 0 10 -4 10 -10z m-8010
-15 c0 -20 -22 -65 -31 -65 -5 0 -14 10 -20 22 -10 18 -8 24 11 40 27 22 40
23 40 3z m10870 0 c7 -9 10 -18 7 -21 -10 -11 -37 5 -37 21 0 19 14 19 30 0z
m145 5 c3 -5 1 -10 -4 -10 -6 0 -11 5 -11 10 0 6 2 10 4 10 3 0 8 -4 11 -10z
m-7090 -38 c-22 -5 -29 3 -21 25 7 17 8 17 22 -2 13 -18 13 -20 -1 -23z
m-1363 13 c0 -5 -5 -11 -11 -13 -6 -2 -11 4 -11 13 0 9 5 15 11 13 6 -2 11 -8
11 -13z m-62 1 c0 -3 -4 -8 -10 -11 -5 -3 -10 -1 -10 4 0 6 5 11 10 11 6 0 10
-2 10 -4z m4720 -6 c0 -5 -7 -10 -15 -10 -8 0 -15 5 -15 10 0 6 7 10 15 10 8
0 15 -4 15 -10z m2276 -5 c-11 -8 -22 -12 -25 -9 -6 6 19 24 34 24 6 -1 1 -7
-9 -15z m-3566 -15 c0 -5 -4 -10 -10 -10 -5 0 -10 5 -10 10 0 6 5 10 10 10 6
0 10 -4 10 -10z m4550 -10 c0 -5 -2 -10 -4 -10 -3 0 -8 5 -11 10 -3 6 -1 10 4
10 6 0 11 -4 11 -10z m-10375 -20 c3 -5 1 -10 -4 -10 -6 0 -11 5 -11 10 0 6 2
10 4 10 3 0 8 -4 11 -10z m550 1 c3 -5 1 -12 -5 -16 -5 -3 -10 1 -10 9 0 18 6
21 15 7z m6237 -23 c-12 -12 -35 -1 -27 12 3 5 13 6 21 3 10 -4 12 -9 6 -15z
m-944 0 c15 -15 16 -55 1 -63 -15 -10 -21 0 -25 40 -2 37 4 43 24 23z m1154
-13 c8 -18 8 -29 1 -36 -17 -17 -33 -1 -33 32 0 36 16 38 32 4z m-2115 -11 c8
-21 -15 -35 -51 -32 -37 4 -44 21 -14 36 33 16 58 14 65 -4z m1438 5 c22 0 64
2 93 3 70 3 84 -13 38 -41 -33 -21 -40 -22 -91 -10 -41 9 -65 9 -92 1 -21 -5
-62 -13 -91 -17 -43 -6 -57 -4 -73 11 -10 9 -19 25 -19 35 0 15 11 19 68 22
37 2 81 2 97 -1 17 -2 48 -3 70 -3z m1065 3 c0 -13 -12 -22 -22 -16 -10 6 -1
24 13 24 5 0 9 -4 9 -8z m-4490 -16 c19 -1 52 -9 73 -16 35 -13 40 -13 52 3
13 18 35 23 35 8 0 -13 -40 -60 -61 -72 -15 -8 -25 -6 -45 10 -20 15 -31 18
-44 11 -28 -15 -55 -12 -82 9 -15 12 -44 21 -73 23 -27 2 -50 8 -52 15 -5 15
39 22 107 16 30 -3 71 -6 90 -7z m904 -17 c32 -25 33 -39 3 -39 -25 0 -72 42
-60 53 11 12 30 8 57 -14z m126 6 c17 -9 30 -17 30 -19 0 -3 3 -11 6 -19 9
-24 -33 -27 -63 -4 -44 32 -46 35 -39 46 10 15 32 14 66 -4z m196 -42 c17 -11
16 -12 -11 -12 -37 -1 -55 15 -55 47 l0 25 23 -24 c13 -13 32 -29 43 -36z
m-3332 31 c4 -11 0 -15 -16 -12 -12 2 -23 9 -26 16 -6 18 35 15 42 -4z m4500
1 c8 -21 -3 -45 -19 -39 -14 6 -26 39 -17 48 10 11 30 6 36 -9z m-2634 -20 c0
-8 -4 -15 -10 -15 -5 0 -10 7 -10 15 0 8 5 15 10 15 6 0 10 -7 10 -15z m4798
3 c-5 -15 -58 -24 -58 -10 0 15 12 22 38 22 14 0 22 -5 20 -12z"/>
<path d="M10878 5146 c-68 -24 -229 -107 -260 -134 -10 -8 -15 -18 -12 -23 6
-10 30 -2 65 22 66 46 176 92 251 105 82 14 118 28 118 44 0 18 -94 10 -162
-14z"/>
<path d="M11960 5015 c0 -8 4 -15 10 -15 5 0 7 7 4 15 -4 8 -8 15 -10 15 -2 0
-4 -7 -4 -15z"/>
<path d="M10522 4943 c-42 -20 -218 -187 -237 -224 -34 -65 -4 -52 95 44 47
45 109 103 138 130 69 63 71 83 4 50z"/>
<path d="M11207 4876 c-58 -16 -87 -40 -69 -58 9 -9 25 -7 71 7 78 23 211 17
295 -15 61 -23 242 -153 264 -190 11 -18 10 -23 -8 -38 -20 -17 -20 -17 15
-45 43 -34 69 -32 73 5 4 37 -35 93 -121 170 -88 79 -156 118 -265 152 -92 29
-177 33 -255 12z"/>
<path d="M11330 4776 c0 -21 8 -24 86 -36 45 -6 96 -24 147 -50 43 -22 86 -40
94 -40 34 0 -13 33 -122 86 -86 42 -120 54 -157 54 -35 0 -48 -4 -48 -14z"/>
<path d="M11353 4673 c-7 -2 -13 -13 -13 -24 0 -17 6 -18 73 -13 63 5 79 3
127 -19 106 -47 217 -162 292 -301 37 -71 43 -77 46 -54 2 20 -15 59 -60 134
-72 122 -155 206 -251 254 -51 25 -71 30 -131 29 -39 0 -77 -3 -83 -6z"/>
<path d="M10166 4529 c-30 -35 -124 -225 -162 -326 -26 -69 -32 -127 -12 -121
16 6 21 18 57 130 41 132 71 192 131 263 27 33 49 64 47 70 -8 22 -36 15 -61
-16z"/>
<path d="M11450 4506 c0 -9 5 -16 11 -16 17 0 128 -58 166 -87 75 -58 145
-204 194 -406 15 -61 35 -74 33 -22 -3 91 -57 258 -112 347 -27 43 -141 152
-181 173 -16 8 -47 17 -70 21 -34 5 -41 4 -41 -10z"/>
<path d="M11864 4475 c-9 -23 98 -269 119 -273 26 -5 21 18 -23 110 -22 46
-44 103 -48 128 -8 47 -36 67 -48 35z"/>
<path d="M11425 4335 c-20 -15 -20 -15 -1 -30 11 -8 26 -15 34 -15 27 0 100
-60 130 -107 75 -117 110 -243 121 -443 8 -126 14 -148 37 -129 34 28 10 270
-42 430 -28 89 -44 119 -87 172 -45 57 -118 116 -159 132 -8 3 -22 -1 -33 -10z"/>
<path d="M10223 4282 c-18 -12 -66 -122 -106 -247 -38 -118 -65 -283 -50 -310
19 -33 35 14 58 167 21 145 24 157 65 223 61 100 84 156 68 167 -16 10 -20 10
-35 0z"/>
<path d="M11900 4149 c0 -66 24 -209 36 -209 7 0 16 9 19 20 7 23 -12 166 -26
193 -13 23 -29 22 -29 -4z"/>
<path d="M9956 4025 c-18 -49 -18 -290 1 -272 2 3 11 52 18 109 8 57 17 120
21 141 6 33 4 37 -14 37 -11 0 -23 -7 -26 -15z"/>
<path d="M10277 3918 c-38 -122 -47 -186 -47 -340 0 -300 70 -558 215 -795 55
-92 76 -84 31 11 -138 292 -174 430 -197 761 l-12 160 37 112 c41 128 46 173
17 173 -15 0 -24 -17 -44 -82z"/>
<path d="M11837 3843 c-3 -5 -5 -55 -5 -113 1 -128 -17 -248 -45 -292 -11 -18
-20 -42 -18 -53 1 -11 -5 -51 -13 -90 -8 -38 -13 -72 -11 -74 2 -2 11 -1 20 3
30 11 52 90 90 326 35 212 37 238 24 264 -14 30 -33 43 -42 29z"/>
<path d="M10071 3667 c-29 -36 -3 -299 50 -502 40 -155 58 -217 63 -222 9 -9
26 9 26 27 0 10 -13 58 -29 107 -28 87 -80 399 -82 498 -1 28 -4 63 -8 79 -5
26 -7 27 -20 13z"/>
<path d="M11950 3653 c0 -16 -5 -63 -12 -105 -10 -68 -8 -101 6 -87 13 12 47
174 42 195 -9 34 -36 31 -36 -3z"/>
<path d="M9947 3657 c-3 -9 -2 -19 4 -23 15 -9 18 -2 9 20 -6 17 -7 18 -13 3z"/>
<path d="M12230 3655 c0 -8 5 -15 10 -15 6 0 10 7 10 15 0 8 -4 15 -10 15 -5
0 -10 -7 -10 -15z"/>
<path d="M9946 3537 c-7 -38 17 -174 34 -191 7 -7 10 11 10 54 -1 120 -30 210
-44 137z"/>
<path d="M12057 3532 c-11 -11 -17 -35 -17 -63 0 -24 -7 -71 -15 -104 -33
-138 -5 -156 36 -24 32 101 41 173 25 194 -11 15 -13 14 -29 -3z"/>
<path d="M10546 3525 c-18 -19 -22 -144 -7 -236 5 -30 14 -93 21 -142 8 -56
19 -95 31 -110 l18 -22 1 32 c0 17 -7 60 -16 95 -13 50 -16 94 -11 220 4 122
2 160 -8 168 -9 8 -17 6 -29 -5z"/>
<path d="M12421 3401 c-1 -27 2 -32 11 -23 8 8 8 17 0 34 -10 22 -11 21 -11
-11z"/>
<path d="M11876 3311 c-19 -21 -38 -80 -30 -93 7 -11 63 22 76 46 7 13 7 26
-1 42 -13 29 -22 30 -45 5z"/>
<path d="M9991 3287 c-1 -42 19 -115 37 -129 14 -12 14 -8 8 31 -4 25 -15 63
-26 85 -17 39 -18 40 -19 13z"/>
<path d="M12381 3278 c-5 -13 -12 -50 -16 -83 -4 -33 -14 -76 -22 -97 -8 -20
-13 -45 -10 -55 5 -24 46 62 47 99 0 14 9 55 20 90 11 34 20 64 20 66 0 1 -7
2 -15 2 -9 0 -19 -10 -24 -22z"/>
<path d="M11608 3101 c-93 -92 -169 -132 -260 -139 -71 -5 -102 -22 -80 -44
17 -17 143 5 215 36 62 28 241 180 234 200 -10 29 -42 14 -109 -53z"/>
<path d="M11787 3143 c-13 -12 -7 -43 8 -43 12 0 35 28 35 44 0 8 -35 7 -43
-1z"/>
<path d="M10785 3120 c-18 -57 93 -370 131 -370 25 0 21 17 -26 111 -45 89
-50 105 -50 167 0 87 -37 149 -55 92z"/>
<path d="M11827 3073 c-4 -3 -7 -13 -7 -22 1 -13 3 -13 11 2 11 19 8 33 -4 20z"/>
<path d="M11916 3040 c-9 -19 -37 -64 -62 -100 -25 -36 -54 -83 -65 -105 -24
-46 -190 -219 -231 -241 -28 -15 -38 -34 -17 -34 23 0 138 91 194 152 75 84
165 220 188 287 21 63 17 91 -7 41z"/>
<path d="M12038 3053 c-21 -24 -58 -110 -50 -117 17 -18 42 -2 61 39 33 70 26
120 -11 78z"/>
<path d="M11726 3044 c-11 -28 -6 -39 9 -20 8 11 15 23 15 28 0 14 -18 9 -24
-8z"/>
<path d="M10904 3005 c-11 -29 25 -135 70 -204 119 -184 252 -270 423 -274 66
-2 94 5 80 19 -3 3 -41 10 -84 15 -194 23 -406 207 -443 385 -12 58 -35 88
-46 59z"/>
<path d="M11741 2939 c-40 -51 -49 -69 -33 -69 15 0 51 44 67 83 8 20 13 37
11 37 -2 0 -23 -23 -45 -51z"/>
<path d="M12282 2933 c-5 -16 -13 -36 -17 -45 -4 -11 -3 -18 4 -18 13 0 53 75
44 84 -12 12 -21 6 -31 -21z"/>
<path d="M10620 2935 c0 -8 4 -15 10 -15 5 0 7 7 4 15 -4 8 -8 15 -10 15 -2 0
-4 -7 -4 -15z"/>
<path d="M11580 2915 c0 -8 9 -29 20 -47 25 -42 25 -48 -2 -46 -13 1 -45 -11
-72 -27 -41 -24 -61 -29 -119 -29 -90 -1 -101 18 -20 34 67 13 128 37 144 57
21 24 0 27 -59 8 -31 -10 -94 -21 -140 -25 -90 -7 -114 -19 -96 -48 18 -29 91
-63 149 -69 85 -9 75 -20 -36 -38 -46 -8 -91 11 -151 64 -75 66 -95 48 -31
-29 29 -36 54 -53 127 -84 100 -42 142 -52 180 -42 41 10 30 25 -24 32 -27 4
-50 10 -50 14 0 4 21 13 47 20 26 6 52 15 58 19 5 5 21 11 35 14 36 9 154 131
147 151 -4 9 -15 16 -26 16 -15 0 -18 5 -14 21 4 15 0 27 -12 35 -25 18 -55
18 -55 -1z"/>
<path d="M12097 2923 c-10 -10 -8 -33 3 -33 5 0 14 9 20 20 8 15 8 20 -3 20
-8 0 -17 -3 -20 -7z"/>
<path d="M12131 2846 c-11 -29 -45 -98 -75 -152 -58 -103 -93 -190 -81 -202
13 -13 66 63 120 173 66 136 97 214 90 226 -14 22 -35 5 -54 -45z"/>
<path d="M10651 2865 c-1 -13 32 -102 42 -111 4 -4 7 -1 7 7 0 17 -48 118 -49
104z"/>
<path d="M11997 2864 c-4 -4 -7 -17 -7 -28 0 -19 1 -19 17 -3 12 11 14 20 7
27 -6 6 -13 7 -17 4z"/>
<path d="M12031 2787 c-11 -11 -15 -47 -5 -47 15 0 44 22 44 34 0 19 -25 27
-39 13z"/>
<path d="M11874 2765 c-18 -28 -12 -45 17 -45 25 0 24 -12 -1 -28 -20 -12 -28
-52 -10 -52 5 0 23 21 39 47 27 43 28 48 14 69 -22 34 -41 37 -59 9z"/>
<path d="M11795 2679 c-33 -20 -39 -42 -14 -47 19 -4 69 35 69 54 0 19 -19 17
-55 -7z"/>
<path d="M10960 2675 c0 -13 30 -62 44 -74 25 -21 38 -3 21 29 -17 32 -65 65
-65 45z"/>
<path d="M10260 2589 c0 -28 278 -468 316 -500 31 -25 13 39 -25 92 -21 30
-46 70 -56 89 -10 19 -33 52 -51 72 -18 20 -42 54 -52 75 -74 145 -100 188
-115 191 -12 2 -17 -3 -17 -19z"/>
<path d="M11852 2498 c-45 -49 -48 -114 -3 -69 26 26 52 77 44 85 -11 10 -19
7 -41 -16z"/>
<path d="M11924 2435 c-9 -14 -15 -28 -12 -30 10 -10 58 21 58 38 0 25 -27 21
-46 -8z"/>
<path d="M11886 2371 c-4 -7 -5 -15 -2 -18 9 -9 19 4 14 18 -4 11 -6 11 -12 0z"/>
<path d="M10520 2329 c0 -6 15 -39 33 -73 55 -104 238 -279 264 -252 8 8 -31
46 -100 99 -20 15 -68 72 -107 127 -71 100 -90 121 -90 99z"/>
<path d="M10610 2057 c0 -18 56 -70 70 -65 14 4 -22 53 -51 68 -14 8 -19 7
-19 -3z"/>
<path d="M10910 1982 c0 -16 90 -73 162 -103 55 -23 83 -29 116 -26 83 9 68
29 -36 51 -40 8 -103 31 -140 51 -64 34 -102 44 -102 27z"/>
<path d="M11065 1790 c-11 -17 -1 -22 72 -36 46 -8 71 -9 78 -3 16 17 -24 39
-71 39 -23 0 -49 3 -57 6 -8 3 -18 0 -22 -6z"/>
<path d="M7107 5014 c-10 -10 12 -45 62 -99 77 -82 129 -168 167 -277 21 -57
48 -116 62 -133 26 -32 26 -19 3 -223 -10 -83 -36 -122 -81 -122 -19 0 -39
-13 -69 -45 -31 -33 -50 -45 -71 -45 -43 0 -79 17 -111 51 -26 28 -49 32 -49
8 0 -5 16 -26 35 -48 19 -21 35 -44 35 -50 0 -23 -24 -10 -66 36 -48 51 -56
50 -72 -9 -8 -27 -7 -43 4 -64 11 -20 11 -30 3 -41 -9 -11 -7 -19 11 -38 29
-31 71 -43 175 -51 77 -6 82 -6 113 21 18 15 42 46 54 69 11 22 40 73 64 112
56 90 79 159 88 259 9 106 -5 184 -43 239 -17 24 -40 68 -51 97 -34 91 -102
205 -168 284 -60 70 -79 84 -95 69z m-72 -1004 c40 -27 117 -26 189 1 31 12
60 19 64 15 4 -4 -9 -20 -28 -36 -60 -49 -198 -54 -246 -9 -23 22 -32 49 -16
49 4 0 21 -9 37 -20z"/>
<path d="M7259 4918 c32 -46 83 -128 112 -183 41 -74 59 -100 74 -100 30 0 30
32 -2 68 -15 18 -61 85 -101 149 -40 65 -83 124 -95 133 -48 33 -44 11 12 -67z"/>
<path d="M6922 4528 c-18 -18 -16 -158 2 -158 16 0 50 123 41 151 -7 22 -25
25 -43 7z"/>
<path d="M7040 4304 c0 -50 44 -154 66 -154 25 0 25 21 -1 91 -44 122 -65 143
-65 63z"/>
<path d="M6910 4289 c0 -33 3 -40 18 -37 21 4 28 44 12 64 -21 24 -30 16 -30
-27z"/>
<path d="M7485 4177 c-4 -10 -5 -21 -1 -24 10 -10 18 4 13 24 -4 17 -4 17 -12
0z"/>
<path d="M7390 4014 c0 -17 22 -14 28 4 2 7 -3 12 -12 12 -9 0 -16 -7 -16 -16z"/>
<path d="M7074 3838 c-9 -14 -8 -104 1 -118 13 -21 33 -8 49 30 19 48 20 72 4
88 -15 15 -45 15 -54 0z"/>
<path d="M7136 2363 c19 -266 55 -577 68 -590 11 -11 26 10 21 30 -3 12 -14
105 -25 207 -12 102 -25 214 -30 250 -6 36 -12 91 -16 123 -8 87 -25 69 -18
-20z"/>
<path d="M7228 1625 c2 -25 8 -45 13 -45 10 0 12 50 3 74 -12 30 -19 16 -16
-29z"/>
<path d="M7123 1644 c-3 -10 4 -26 21 -42 l26 -27 0 27 c0 37 -10 58 -26 58
-8 0 -17 -7 -21 -16z"/>
<path d="M7174 1508 c4 -18 10 -68 14 -110 9 -93 22 -112 55 -80 18 19 22 36
26 103 4 95 -10 119 -67 119 -33 0 -34 -1 -28 -32z"/>
<path d="M9092 4878 c5 -15 67 -18 71 -3 1 6 -15 11 -37 13 -28 3 -37 0 -34
-10z"/>
<path d="M9190 4870 c0 -5 5 -10 11 -10 5 0 7 5 4 10 -3 6 -8 10 -11 10 -2 0
-4 -4 -4 -10z"/>
<path d="M9185 4820 c-9 -15 4 -30 25 -30 24 0 36 20 19 31 -19 12 -36 11 -44
-1z"/>
<path d="M8940 4770 c-21 -13 24 -28 98 -32 67 -3 87 6 58 28 -22 16 -132 19
-156 4z"/>
<path d="M9267 4693 c-16 -15 -6 -33 18 -33 27 0 32 9 13 28 -14 14 -22 15
-31 5z"/>
<path d="M9180 4565 c0 -15 26 -20 54 -9 24 9 9 24 -25 24 -19 0 -29 -5 -29
-15z"/>
<path d="M9006 4521 c-13 -20 5 -31 50 -31 40 0 57 11 36 24 -19 12 -80 17
-86 7z"/>
<path d="M9177 4504 c-13 -14 6 -24 43 -24 41 0 61 14 34 24 -21 8 -69 8 -77
0z"/>
<path d="M9354 4485 c22 -17 74 -19 96 -5 18 11 21 11 -55 15 -54 4 -58 3 -41
-10z"/>
<path d="M9050 4437 c0 -11 28 -15 137 -20 76 -3 140 -4 142 -1 14 14 -29 22
-146 28 -111 6 -133 5 -133 -7z"/>
<path d="M9390 4420 c0 -5 18 -19 39 -30 22 -11 42 -24 46 -30 10 -17 25 -11
25 10 0 12 -13 28 -32 40 -35 21 -78 27 -78 10z"/>
<path d="M8806 4381 c-3 -5 1 -12 9 -15 55 -21 478 -45 489 -28 3 6 2 13 -2
16 -11 6 -375 36 -444 36 -26 0 -49 -4 -52 -9z"/>
<path d="M8812 4299 c5 -15 42 -19 308 -38 80 -5 153 -13 163 -16 9 -4 24 -4
33 -1 15 6 15 8 0 25 -18 19 -64 24 -370 38 -116 5 -138 4 -134 -8z"/>
<path d="M8790 4176 c0 -8 6 -16 14 -19 10 -4 314 -17 511 -22 6 0 11 9 13 21
3 20 -2 21 -179 27 -288 11 -359 9 -359 -7z"/>
<path d="M8796 4061 c12 -11 153 -21 159 -11 8 13 -24 20 -98 20 -41 0 -67 -4
-61 -9z"/>
<path d="M9002 4053 c4 -21 45 -30 62 -13 14 14 -8 30 -42 30 -17 0 -23 -5
-20 -17z"/>
<path d="M9105 4051 c-6 -11 28 -18 125 -25 64 -4 106 6 95 25 -8 12 -212 12
-220 0z"/>
<path d="M8775 4011 c-3 -5 0 -13 5 -16 10 -6 161 -24 239 -29 38 -2 37 22 -1
28 -18 2 -66 9 -106 15 -89 13 -129 14 -137 2z"/>
<path d="M9092 3981 c-11 -7 -11 -9 1 -14 29 -11 173 -29 206 -25 38 3 53 23
24 32 -34 10 -218 16 -231 7z"/>
<path d="M8780 3911 c0 -13 38 -21 103 -21 71 0 75 15 5 24 -73 8 -108 8 -108
-3z"/>
<path d="M8982 3898 c5 -15 67 -18 71 -3 1 6 -15 11 -37 13 -28 3 -37 0 -34
-10z"/>
<path d="M9128 3903 c-58 -6 -45 -20 27 -28 76 -8 119 6 72 24 -16 6 -36 10
-45 9 -9 -1 -34 -3 -54 -5z"/>
<path d="M8905 3801 c-7 -12 78 -26 101 -17 8 3 12 10 9 16 -8 13 -102 13
-110 1z"/>
<path d="M9075 3799 c-9 -14 -4 -18 33 -25 39 -8 44 12 6 26 -31 12 -31 12
-39 -1z"/>
<path d="M9203 3793 c-45 -9 -18 -33 36 -33 34 0 44 9 30 27 -11 13 -24 14
-66 6z"/>
<path d="M8782 3713 c2 -14 15 -19 51 -21 26 -2 55 1 64 7 16 8 15 11 -10 20
-16 6 -46 11 -68 11 -33 0 -40 -3 -37 -17z"/>
<path d="M8952 3708 c5 -15 58 -24 58 -10 0 11 -24 22 -47 22 -8 0 -13 -6 -11
-12z"/>
<path d="M9040 3701 c0 -5 8 -12 18 -16 28 -11 149 -18 169 -11 17 7 17 8 -1
22 -22 16 -186 20 -186 5z"/>
<path d="M8937 3643 c-4 -3 -7 -12 -7 -20 0 -10 18 -13 71 -13 52 0 70 3 67
13 -7 19 -115 36 -131 20z"/>
<path d="M9302 3054 c-19 -13 -58 -15 -235 -15 -116 1 -225 3 -242 6 -39 7
-65 -9 -47 -27 10 -10 73 -13 263 -14 220 -1 251 -3 268 -18 18 -17 19 -16 26
24 9 51 -3 65 -33 44z"/>
<path d="M8810 2911 c0 -13 30 -22 51 -16 31 10 21 25 -16 25 -19 0 -35 -4
-35 -9z"/>
<path d="M8942 2913 c-37 -15 16 -23 156 -22 88 0 148 4 137 8 -24 10 -275 22
-293 14z"/>
<path d="M8911 2821 c-62 -4 -96 -10 -99 -18 -5 -17 244 -18 285 -1 l28 11
-30 7 c-34 9 -50 9 -184 1z"/>
<path d="M9157 2823 c-13 -12 -7 -21 19 -27 32 -8 57 10 34 24 -18 11 -44 13
-53 3z"/>
<path d="M9306 2814 c-9 -23 -7 -77 3 -93 7 -11 12 -5 19 21 15 55 -4 119 -22
72z"/>
<path d="M8794 2718 c11 -6 51 -13 89 -16 57 -4 69 -2 65 9 -3 10 -27 15 -89
16 -67 2 -80 1 -65 -9z"/>
<path d="M9068 2721 c-85 -8 -93 -16 -23 -25 69 -8 167 3 162 18 -4 13 -48 15
-139 7z"/>
<path d="M8805 2650 c-7 -11 2 -30 13 -30 4 0 14 5 22 10 13 9 13 11 0 20 -19
12 -27 12 -35 0z"/>
<path d="M8880 2640 c0 -5 14 -10 30 -10 17 0 30 5 30 10 0 6 -13 10 -30 10
-16 0 -30 -4 -30 -10z"/>
<path d="M9117 2643 c-4 -3 1 -15 10 -26 18 -19 15 -19 -181 -16 -152 3 -200
1 -203 -8 -9 -25 52 -33 256 -33 l208 0 11 25 c16 35 15 52 -4 59 -21 8 -89 8
-97 -1z"/>
<path d="M9302 2615 c-10 -22 -12 -51 -7 -105 6 -61 9 -70 17 -51 5 14 7 61 6
105 -3 77 -4 79 -16 51z"/>
<path d="M8752 2542 c-22 -15 14 -36 56 -32 20 2 64 2 97 0 153 -9 199 -6 203
13 3 15 -7 17 -111 17 -63 0 -141 2 -173 6 -32 3 -65 1 -72 -4z"/>
<path d="M9297 2374 c-8 -46 10 -82 28 -53 9 13 -3 79 -14 79 -5 0 -11 -12
-14 -26z"/>
<path d="M8745 2340 c-21 -34 72 -50 297 -50 174 0 198 3 198 26 0 16 -3 16
-210 18 -80 1 -175 6 -211 10 -49 6 -68 5 -74 -4z"/>
<path d="M8974 2255 c-10 -24 5 -35 47 -35 28 0 39 4 39 15 0 30 -75 49 -86
20z"/>
<path d="M4965 4940 c-3 -5 1 -10 10 -10 9 0 13 5 10 10 -3 6 -8 10 -10 10 -2
0 -7 -4 -10 -10z"/>
<path d="M4783 4893 c-7 -3 -13 -11 -13 -18 0 -18 94 -29 178 -22 68 7 82 12
66 26 -10 9 -211 22 -231 14z"/>
<path d="M4735 4820 c-11 -18 6 -30 41 -30 40 0 44 -23 6 -28 -35 -5 -15 -22
25 -22 26 0 43 -7 60 -26 24 -26 27 -27 112 -21 51 3 94 1 105 -5 14 -8 22 -6
34 6 24 24 8 31 -63 28 -74 -4 -91 10 -33 27 36 11 39 14 26 27 -32 33 -145
11 -117 -22 14 -17 3 -35 -17 -27 -12 4 -14 14 -10 39 5 26 2 35 -16 48 -25
18 -143 23 -153 6z"/>
<path d="M5127 4787 c-17 -12 -17 -14 -4 -26 24 -19 72 -10 72 14 0 25 -41 32
-68 12z"/>
<path d="M4653 4758 c-5 -7 -16 -45 -23 -83 -10 -55 -10 -146 -3 -410 5 -187
12 -346 16 -353 5 -7 13 -9 19 -6 8 5 9 106 4 345 -7 323 -6 339 12 357 25 25
182 46 232 32 44 -13 97 -13 105 -1 10 18 -33 31 -99 31 -59 0 -67 3 -82 25
-14 21 -24 25 -65 25 -38 0 -51 4 -56 18 -12 32 -43 42 -60 20z m37 -73 c0
-26 -14 -33 -25 -15 -9 14 1 40 15 40 5 0 10 -11 10 -25z"/>
<path d="M4750 4593 c-66 -5 -75 -10 -60 -29 11 -12 36 -14 159 -10 80 2 147
5 149 5 1 1 2 7 2 15 0 23 -101 31 -250 19z"/>
<path d="M4731 4516 c-14 -16 -4 -26 26 -26 28 0 30 15 4 29 -14 8 -22 7 -30
-3z"/>
<path d="M4850 4509 c0 -5 5 -7 10 -4 6 3 10 8 10 11 0 2 -4 4 -10 4 -5 0 -10
-5 -10 -11z"/>
<path d="M4839 4200 c-29 -7 -36 -27 -12 -33 10 -3 95 -7 188 -9 170 -3 170
-3 173 20 2 13 -2 23 -10 24 -34 4 -319 2 -339 -2z"/>
<path d="M4795 4071 c-13 -22 40 -30 201 -31 209 -2 194 -3 194 14 0 7 -14 16
-31 20 -50 10 -357 7 -364 -3z"/>
<path d="M5100 3960 c0 -13 7 -20 19 -20 28 0 35 17 12 29 -27 15 -31 14 -31
-9z"/>
<path d="M4858 3890 c-13 -3 -24 -13 -26 -22 -2 -13 10 -17 67 -23 74 -7 218
2 226 15 12 19 -29 29 -133 32 -61 2 -122 1 -134 -2z"/>
<path d="M4642 3713 c-1 -143 8 -208 22 -173 12 28 2 313 -10 317 -9 3 -12
-37 -12 -144z"/>
<path d="M4970 3620 c-30 -5 -80 -8 -111 -9 -37 -1 -61 -6 -69 -16 -20 -24 10
-29 153 -21 137 7 167 17 133 42 -21 15 -23 15 -106 4z"/>
<path d="M5130 3540 c-41 -4 -124 -8 -185 -9 -123 -1 -155 -7 -155 -27 0 -17
64 -18 305 -4 169 9 195 14 195 36 0 15 -29 16 -160 4z"/>
<path d="M4650 3470 c0 -5 5 -10 10 -10 6 0 10 5 10 10 0 6 -4 10 -10 10 -5 0
-10 -4 -10 -10z"/>
<path d="M5005 3446 c-223 -11 -255 -16 -255 -38 0 -13 566 0 593 14 9 5 17
15 17 23 0 17 -8 17 -355 1z"/>
<path d="M4654 3389 c-3 -6 -1 -16 5 -22 8 -8 11 -5 11 11 0 24 -5 28 -16 11z"/>
<path d="M5130 3351 c-40 -4 -55 -10 -55 -21 0 -10 13 -16 42 -18 54 -4 108
10 108 29 0 16 -19 18 -95 10z"/>
<path d="M4798 3333 c-40 -10 -14 -23 47 -23 37 0 65 4 65 10 0 6 -15 10 -34
10 -19 0 -40 2 -48 4 -7 2 -21 2 -30 -1z"/>
<path d="M4953 3333 c-24 -9 -13 -23 16 -23 34 0 49 15 25 24 -18 7 -23 7 -41
-1z"/>
<path d="M5205 3270 c-4 -6 -3 -14 0 -20 9 -15 35 -12 35 4 0 17 -27 29 -35
16z"/>
<path d="M5290 3271 c0 -5 5 -13 10 -16 6 -3 10 -2 10 4 0 5 -4 13 -10 16 -5
3 -10 2 -10 -4z"/>
<path d="M4823 3255 c-27 -20 1 -22 171 -16 116 4 161 9 164 19 5 17 -312 14
-335 -3z"/>
<path d="M4652 3235 c0 -16 2 -22 5 -12 2 9 2 23 0 30 -3 6 -5 -1 -5 -18z"/>
<path d="M4965 3199 c-22 -4 -68 -5 -102 -2 -44 4 -67 2 -78 -7 -28 -23 4 -31
100 -25 148 9 175 14 168 31 -6 15 -26 16 -88 3z"/>
<path d="M4640 3123 c0 -30 15 -61 25 -51 3 3 9 22 12 42 5 32 3 36 -16 36
-16 0 -21 -6 -21 -27z"/>
<path d="M5223 3125 c-8 -22 2 -28 34 -20 27 6 27 7 9 21 -25 18 -35 18 -43
-1z"/>
<path d="M4793 3123 c-27 -10 -13 -33 20 -33 69 0 272 22 286 30 17 10 -283
13 -306 3z"/>
<path d="M4994 3059 c-12 -20 20 -29 106 -29 86 0 118 9 106 29 -5 7 -44 11
-106 11 -62 0 -101 -4 -106 -11z"/>
<path d="M4820 3050 c-13 -9 -13 -11 0 -20 19 -13 42 -13 77 1 22 8 24 12 13
19 -20 13 -71 12 -90 0z"/>
<path d="M4926 3002 c-3 -6 -1 -14 5 -17 15 -10 25 3 12 16 -7 7 -13 7 -17 1z"/>
<path d="M5030 3000 c0 -18 52 -32 88 -23 54 13 42 28 -25 31 -40 2 -63 -1
-63 -8z"/>
<path d="M4823 2934 c-6 -17 12 -34 37 -34 25 0 43 17 37 34 -4 10 -18 16 -37
16 -19 0 -33 -6 -37 -16z"/>
<path d="M4955 2940 c-4 -6 3 -10 14 -10 25 0 27 6 6 13 -8 4 -17 2 -20 -3z"/>
<path d="M5047 2925 c-13 -18 -27 -25 -51 -25 -49 0 -96 -11 -96 -23 0 -12
336 0 359 13 24 13 -30 24 -87 17 -53 -6 -92 6 -92 28 0 22 -12 18 -33 -10z"/>
<path d="M4658 2813 c5 -103 7 -112 22 -97 12 12 -2 186 -16 191 -8 3 -10 -25
-6 -94z"/>
<path d="M4790 2876 c0 -10 9 -16 21 -16 24 0 21 23 -4 28 -10 2 -17 -3 -17
-12z"/>
<path d="M4895 2821 c-88 -5 -110 -9 -110 -21 0 -15 13 -16 100 -9 17 1 110 1
208 -1 98 -1 181 0 184 4 18 17 -24 26 -142 30 -72 2 -179 1 -240 -3z"/>
<path d="M5025 2739 c-11 -4 -53 -8 -92 -8 -42 -1 -73 -5 -73 -11 0 -12 199
-13 219 -1 22 14 -24 32 -54 20z"/>
<path d="M5142 2743 c-6 -2 -10 -9 -6 -14 7 -11 114 -12 132 0 23 14 -93 28
-126 14z"/>
<path d="M4840 2650 c-10 -6 -11 -12 -5 -19 12 -11 500 -20 511 -9 4 4 1 14
-6 23 -10 13 -49 15 -249 15 -130 0 -243 -5 -251 -10z"/>
<path d="M4998 2581 c-91 -3 -170 -9 -173 -13 -4 -4 4 -12 18 -19 31 -14 354
-2 363 13 7 11 -15 29 -31 26 -5 -1 -85 -4 -177 -7z"/>
<path d="M4871 2471 c-19 -12 -4 -18 72 -26 48 -5 67 -4 67 4 0 25 -107 42
-139 22z"/>
<path d="M4799 2404 c-5 -6 -6 -14 -2 -17 11 -12 321 -8 328 4 4 6 4 13 0 17
-11 12 -316 8 -326 -4z"/>
<path d="M4888 1893 c-42 -5 -51 -27 -15 -37 12 -3 74 -6 138 -6 94 0 118 3
122 15 4 8 3 16 -1 19 -11 6 -204 14 -244 9z"/>
<path d="M4792 1808 c5 -15 58 -24 58 -10 0 11 -24 22 -47 22 -8 0 -13 -6 -11
-12z"/>
<path d="M4770 1730 c0 -9 6 -22 12 -28 10 -10 10 -15 -2 -22 -23 -14 -4 -24
48 -24 42 -1 47 1 44 20 -4 28 19 34 135 34 87 0 92 -1 95 -22 2 -15 11 -24
27 -26 31 -5 46 10 33 34 -6 11 -13 27 -16 36 -5 16 -22 18 -191 15 -159 -2
-185 -4 -185 -17z"/>
<path d="M5145 1625 c-66 -13 -61 -20 30 -34 45 -7 63 -6 73 3 11 11 11 16 -3
30 -18 18 -18 18 -100 1z"/>
<path d="M4840 1605 c-11 -13 -4 -15 54 -15 65 0 87 12 44 24 -40 10 -85 6
-98 -9z"/>
<path d="M4783 1543 c-29 -6 -29 -21 0 -28 31 -8 544 -2 552 7 24 24 -19 28
-268 27 -144 -1 -272 -4 -284 -6z"/>
<path d="M4670 1459 c0 -18 2 -19 15 -9 15 12 12 30 -6 30 -5 0 -9 -10 -9 -21z"/>
<path d="M4779 1454 c-15 -18 12 -24 102 -24 48 0 79 4 79 10 0 15 -15 18 -98
22 -48 2 -76 0 -83 -8z"/>
<path d="M5120 1463 c-79 -4 -110 -10 -110 -23 0 -11 212 -14 223 -4 12 12 -6
34 -27 32 -11 -1 -50 -3 -86 -5z"/>
<path d="M5321 1456 c-9 -11 -8 -15 5 -20 24 -9 77 -7 94 4 13 9 13 11 0 20
-22 14 -86 12 -99 -4z"/>
<path d="M4745 1380 c-14 -22 33 -28 225 -25 258 2 257 2 243 16 -13 13 -460
21 -468 9z"/>
<path d="M5275 1370 c-3 -5 6 -12 20 -16 31 -8 78 3 70 16 -8 13 -82 13 -90 0z"/>
<path d="M4773 1323 c-7 -2 -13 -11 -13 -18 0 -18 108 -29 185 -18 64 9 77 24
29 34 -35 8 -184 9 -201 2z"/>
<path d="M5083 1319 c-23 -23 -14 -29 45 -29 57 0 93 12 79 26 -14 14 -111 16
-124 3z"/>
<path d="M5300 1323 c-93 -10 -61 -30 51 -32 71 -1 85 4 68 26 -11 12 -43 14
-119 6z"/>
<path d="M3640 3485 c0 -8 5 -15 10 -15 6 0 10 7 10 15 0 8 -4 15 -10 15 -5 0
-10 -7 -10 -15z"/>
<path d="M3634 3399 c-3 -6 -2 -15 4 -21 13 -13 32 -2 32 18 0 16 -26 19 -36
3z"/>
<path d="M3640 3321 c0 -11 5 -23 10 -26 6 -4 10 5 10 19 0 14 -4 26 -10 26
-5 0 -10 -9 -10 -19z"/>
<path d="M3896 3278 c-8 -31 -8 -93 1 -101 13 -14 33 17 33 53 0 65 -21 94
-34 48z"/>
<path d="M3636 3252 c-2 -4 -5 -56 -5 -115 -1 -87 2 -109 14 -113 24 -10 46
15 35 36 -6 10 -10 59 -10 109 0 73 -3 91 -14 91 -8 0 -17 -4 -20 -8z"/>
<path d="M4177 3244 c-5 -10 -10 -50 -8 -73 2 -23 31 8 31 33 0 25 -15 52 -23
40z"/>
<path d="M3370 3140 c0 -5 5 -10 10 -10 6 0 10 5 10 10 0 6 -4 10 -10 10 -5 0
-10 -4 -10 -10z"/>
<path d="M3896 3115 c-11 -29 -6 -51 14 -70 17 -15 20 -16 25 -2 11 28 1 82
-16 85 -9 2 -19 -4 -23 -13z"/>
<path d="M3430 3035 c0 -8 5 -15 10 -15 6 0 10 7 10 15 0 8 -4 15 -10 15 -5 0
-10 -7 -10 -15z"/>
<path d="M3367 3014 c-8 -8 1 -24 14 -24 5 0 9 7 9 15 0 15 -12 20 -23 9z"/>
<path d="M3365 2950 c-3 -6 1 -13 10 -16 19 -8 30 0 20 15 -8 14 -22 14 -30 1z"/>
<path d="M3401 2911 c-12 -8 -12 -12 -2 -25 8 -9 20 -16 28 -16 19 0 29 30 12
41 -17 11 -21 11 -38 0z"/>
<path d="M3983 2820 c-36 -15 -27 -27 26 -34 49 -6 101 5 101 23 0 20 -86 27
-127 11z"/>
<path d="M3840 2790 c0 -15 7 -20 29 -20 37 0 48 15 22 29 -31 17 -51 13 -51
-9z"/>
<path d="M3715 2790 c-9 -15 4 -30 25 -30 24 0 36 20 19 31 -19 12 -36 11 -44
-1z"/>
<path d="M3620 2670 c-6 -12 -24 -23 -40 -27 -39 -7 -59 -31 -39 -44 8 -5 25
-6 39 -3 14 3 48 9 77 13 60 9 83 24 83 57 0 22 -4 24 -55 24 -44 0 -56 -4
-65 -20z"/>
<path d="M4000 2665 c-8 -2 -32 -6 -52 -10 -65 -10 -41 -25 41 -25 97 0 141 8
141 26 0 10 -15 14 -57 13 -32 -1 -65 -3 -73 -4z"/>
<path d="M3800 2635 c0 -11 7 -15 23 -13 12 2 22 8 22 13 0 6 -10 11 -22 13
-16 2 -23 -2 -23 -13z"/>
<path d="M3779 2586 c-3 -3 -144 -14 -206 -16 -7 0 -13 -7 -13 -17 0 -14 15
-16 161 -10 153 6 198 15 183 38 -5 9 -116 13 -125 5z"/>
<path d="M4007 2533 c-15 -14 -6 -23 22 -23 35 0 61 9 61 21 0 10 -73 12 -83
2z"/>
<path d="M3722 2506 c-48 -17 -29 -26 57 -27 100 -1 56 -17 -52 -18 -60 -1
-79 -4 -84 -16 -11 -31 -7 -31 174 -17 73 6 140 15 149 20 15 8 13 12 -15 27
-21 10 -31 22 -27 31 4 11 -10 14 -82 13 -48 0 -102 -6 -120 -13z"/>
<path d="M3700 2396 c-17 -17 -11 -24 22 -31 28 -7 29 -8 12 -18 -29 -15 -30
-17 -14 -27 18 -12 110 -13 127 -2 6 4 11 16 10 27 -2 16 6 21 38 25 46 7 68
18 60 31 -8 12 -243 7 -255 -5z"/>
<path d="M3765 2280 c-13 -21 11 -31 61 -28 36 2 49 7 49 18 0 19 -99 27 -110
10z"/>
<path d="M3817 2214 c-10 -10 12 -44 29 -44 20 0 30 30 13 41 -17 10 -33 11
-42 3z"/>
<path d="M3917 2034 c-10 -11 -8 -44 2 -44 6 0 13 4 16 10 8 12 -9 43 -18 34z"/>
<path d="M3914 1679 c-3 -6 -3 -45 1 -87 10 -107 32 -57 27 61 -2 36 -14 48
-28 26z"/>
<path d="M1550 4535 c0 -18 24 -30 40 -20 8 5 8 11 -1 21 -15 19 -39 18 -39
-1z"/>
<path d="M1516 4381 c-7 -10 16 -21 44 -21 10 0 26 -7 34 -16 9 -8 20 -12 26
-9 30 18 -10 55 -60 55 -21 0 -41 -4 -44 -9z"/>
<path d="M450 4347 l-25 -11 28 -4 c33 -4 57 3 57 18 0 13 -28 12 -60 -3z"/>
<path d="M425 4280 c-4 -6 5 -10 20 -10 15 0 24 4 20 10 -3 6 -12 10 -20 10
-8 0 -17 -4 -20 -10z"/>
<path d="M1626 4241 c-6 -9 48 -208 58 -219 15 -15 16 12 3 55 -9 26 -21 74
-28 106 -12 58 -23 76 -33 58z"/>
<path d="M400 4220 c0 -20 10 -25 40 -20 22 3 24 8 10 25 -18 22 -50 19 -50
-5z"/>
<path d="M880 4166 c0 -14 5 -28 10 -31 6 -4 10 7 10 24 0 17 -4 31 -10 31 -5
0 -10 -11 -10 -24z"/>
<path d="M402 4153 c4 -21 33 -25 33 -3 0 8 -8 16 -18 18 -14 3 -18 -1 -15
-15z"/>
<path d="M1735 3820 c3 -5 8 -10 11 -10 2 0 4 5 4 10 0 6 -5 10 -11 10 -5 0
-7 -4 -4 -10z"/>
<path d="M1755 3750 c-8 -13 13 -70 26 -70 5 0 9 13 9 29 0 32 -24 59 -35 41z"/>
<path d="M1545 3719 c-4 -6 -5 -12 -2 -15 10 -11 78 -16 114 -9 l38 8 -35 12
c-43 17 -107 19 -115 4z"/>
<path d="M1568 3652 c-7 -2 -20 -6 -28 -9 -29 -10 23 -22 100 -22 79 -1 114 9
89 25 -13 9 -133 13 -161 6z"/>
<path d="M870 3641 c0 -5 7 -14 15 -21 18 -15 42 1 31 19 -8 13 -46 15 -46 2z"/>
<path d="M871 3576 c-9 -11 -8 -18 4 -30 26 -26 45 -20 45 14 0 23 -5 30 -19
30 -10 0 -24 -6 -30 -14z"/>
<path d="M1593 3581 c-53 -9 -61 -16 -32 -31 24 -13 146 -9 169 5 10 6 9 11
-5 22 -20 14 -62 15 -132 4z"/>
<path d="M1561 3511 c-10 -7 -8 -12 9 -24 l23 -16 -27 -7 c-44 -11 -29 -24 28
-24 45 0 54 3 52 18 -1 14 9 18 52 20 55 3 73 24 30 36 -34 9 -151 7 -167 -3z"/>
<path d="M366 3502 c-2 -4 -1 -14 4 -22 7 -11 12 -12 21 -3 6 6 8 16 5 22 -8
13 -23 14 -30 3z"/>
<path d="M1227 3494 c-14 -14 -6 -24 19 -24 16 0 24 5 22 13 -5 14 -31 21 -41
11z"/>
<path d="M910 3436 c0 -22 3 -27 11 -19 8 8 8 16 0 30 -9 16 -10 14 -11 -11z"/>
<path d="M330 3385 c0 -10 10 -15 26 -15 22 0 25 2 14 15 -7 8 -19 15 -26 15
-8 0 -14 -7 -14 -15z"/>
<path d="M1555 3391 c-17 -8 -18 -10 -4 -15 25 -10 204 -2 204 9 0 12 -172 17
-200 6z"/>
<path d="M910 3360 c0 -5 5 -10 10 -10 6 0 10 5 10 10 0 6 -4 10 -10 10 -5 0
-10 -4 -10 -10z"/>
<path d="M375 3320 c-4 -6 18 -10 60 -10 42 0 64 4 60 10 -3 6 -30 10 -60 10
-30 0 -57 -4 -60 -10z"/>
<path d="M1514 3319 c-13 -21 17 -33 98 -36 94 -4 127 7 94 32 -24 18 -181 21
-192 4z"/>
<path d="M430 3260 c-25 -16 0 -28 73 -36 63 -6 67 -6 67 14 0 11 -7 23 -16
26 -24 9 -107 7 -124 -4z"/>
<path d="M1836 3231 c-14 -22 -21 -197 -8 -205 17 -10 23 29 20 129 -2 58 -6
85 -12 76z"/>
<path d="M930 3221 c0 -5 5 -22 10 -37 8 -20 14 -24 22 -16 9 9 9 18 0 37 -11
24 -32 35 -32 16z"/>
<path d="M375 3160 c-3 -5 0 -13 9 -16 21 -8 71 -1 71 11 0 14 -72 19 -80 5z"/>
<path d="M1828 2960 c-8 -26 -35 -148 -62 -281 -9 -41 -30 -112 -46 -157 -33
-91 -142 -307 -169 -335 -10 -10 -40 -22 -67 -26 -35 -6 -40 -9 -19 -10 17 -1
42 -7 56 -15 15 -7 31 -11 36 -7 26 18 152 255 192 361 12 30 37 111 56 180
32 111 35 137 33 220 -2 61 -6 86 -10 70z"/>
<path d="M1158 2523 c-10 -2 -18 -8 -18 -13 0 -15 64 -27 145 -26 65 1 80 4
83 17 2 11 -7 18 -29 23 -35 7 -154 6 -181 -1z"/>
<path d="M1355 2442 l-50 -17 78 -3 c51 -2 84 1 93 9 12 10 12 14 2 20 -20 13
-68 9 -123 -9z"/>
<path d="M1024 2426 c-18 -14 -18 -15 7 -24 16 -6 43 -7 73 -1 60 11 76 20 50
30 -32 13 -109 10 -130 -5z"/>
<path d="M1195 2420 c3 -5 19 -10 35 -10 16 0 32 5 35 10 4 6 -10 10 -35 10
-25 0 -39 -4 -35 -10z"/>
<path d="M1215 2344 c-141 -15 -125 -11 -125 -25 0 -8 40 -10 140 -7 97 3 139
1 137 -6 -2 -6 -30 -12 -63 -14 -102 -5 -358 -42 -369 -53 -18 -19 332 1 515
29 32 5 46 12 48 25 3 17 -2 19 -45 15 -43 -3 -48 -1 -45 16 7 39 -8 40 -193
20z"/>
<path d="M1440 2350 c0 -5 7 -10 15 -10 8 0 15 5 15 10 0 6 -7 10 -15 10 -8 0
-15 -4 -15 -10z"/>
<path d="M931 2326 c-11 -13 -9 -16 12 -21 39 -10 82 -2 82 15 0 21 -77 26
-94 6z"/>
<path d="M1368 2221 c-70 -6 -99 -14 -87 -25 9 -8 220 -12 225 -4 9 14 -17 38
-40 36 -11 0 -56 -4 -98 -7z"/>
<path d="M854 2191 c-2 -2 -4 -12 -4 -22 0 -10 -15 -25 -37 -36 -44 -21 -64
-62 -43 -87 9 -11 32 -16 79 -17 58 -1 63 -2 39 -12 -32 -12 -36 -25 -10 -34
9 -4 25 -17 35 -30 20 -25 74 -31 122 -13 35 13 23 30 -21 30 -47 0 -54 23
-18 61 37 39 69 36 69 -6 0 -24 5 -31 24 -33 30 -5 50 13 33 30 -21 21 -13 29
26 29 20 0 57 1 81 2 28 1 46 -3 48 -10 3 -8 -5 -13 -22 -13 -15 0 -40 -11
-57 -25 -18 -15 -42 -25 -61 -25 -60 0 -76 -32 -22 -42 11 -2 20 -11 20 -20 0
-10 6 -23 12 -29 10 -10 25 1 72 49 74 76 121 100 212 112 83 10 101 22 76 47
-13 13 -39 19 -94 22 -68 3 -75 5 -58 17 24 18 20 20 -38 27 -45 4 -51 2 -75
-25 -25 -28 -27 -28 -34 -8 -6 17 -16 20 -73 20 -63 0 -65 1 -55 20 6 11 7 21
3 21 -21 4 -225 3 -229 0z m173 -37 c2 -7 -21 -13 -64 -17 -69 -5 -102 5 -73
24 20 12 132 7 137 -7z m-52 -44 c4 -6 -8 -10 -29 -10 -20 0 -36 5 -36 10 0 6
13 10 29 10 17 0 33 -4 36 -10z"/>
<path d="M1135 2190 c-8 -13 35 -13 55 0 11 7 7 10 -17 10 -17 0 -35 -4 -38
-10z"/>
<path d="M970 1892 c0 -14 11 -21 26 -15 21 8 17 23 -6 23 -11 0 -20 -4 -20
-8z"/>
<path d="M1018 1851 c-42 -12 -49 -70 -13 -107 35 -34 48 -22 40 35 -6 43 -5
45 10 30 9 -9 22 -33 29 -53 16 -48 26 -49 42 -6 17 47 17 85 1 99 -13 10 -77
11 -109 2z"/>
<path d="M990 1686 c0 -9 7 -16 16 -16 17 0 14 22 -4 28 -7 2 -12 -3 -12 -12z"/>
<path d="M1076 1639 c-10 -49 -7 -254 3 -244 8 9 15 80 24 229 2 48 -18 59
-27 15z"/>
<path d="M1070 1328 c0 -19 2 -20 10 -8 13 19 13 30 0 30 -5 0 -10 -10 -10
-22z"/>
<path d="M2365 4461 l-100 -6 -2 -30 c-2 -18 5 -39 17 -53 l20 -24 30 26 c32
26 54 26 65 -2 7 -20 -19 -42 -51 -42 -23 0 -41 -16 -31 -27 3 -3 73 -2 156 2
138 7 151 9 151 26 0 10 13 25 30 34 33 17 40 35 12 35 -10 0 -33 16 -52 35
-38 39 -26 38 -245 26z m195 -61 c0 -4 -12 -11 -27 -15 -16 -3 -40 -18 -55
-32 -28 -27 -33 -25 -40 21 -2 16 6 21 52 31 56 11 70 10 70 -5z m-10 -51 c0
-5 -4 -9 -10 -9 -5 0 -10 7 -10 16 0 8 5 12 10 9 6 -3 10 -10 10 -16z"/>
<path d="M2540 4110 c-14 -4 -44 -8 -68 -9 -24 -1 -52 -6 -63 -11 -41 -22 -18
-31 81 -29 103 1 129 11 116 44 -6 16 -26 18 -66 5z"/>
<path d="M2598 4043 c-10 -2 -18 -11 -18 -19 0 -23 84 -15 88 9 3 13 -3 17
-25 16 -15 -1 -36 -3 -45 -6z"/>
<path d="M2430 4030 c-13 -9 -13 -11 0 -20 19 -12 41 -12 60 0 11 7 9 11 -13
19 -34 13 -29 13 -47 1z"/>
<path d="M2566 3919 c-59 -5 -94 -13 -105 -23 -14 -15 -9 -16 54 -15 118 1
212 17 194 33 -12 10 -63 12 -143 5z"/>
<path d="M2460 3851 c-57 -5 -75 -10 -75 -21 0 -13 19 -15 120 -12 117 3 156
13 125 32 -16 10 -45 10 -170 1z"/>
<path d="M2314 3765 c-3 -8 -3 -19 1 -25 11 -18 25 -11 25 15 0 27 -17 34 -26
10z"/>
<path d="M2380 3760 c0 -5 9 -14 20 -20 11 -6 20 -17 20 -25 0 -16 62 -20 133
-9 56 10 45 20 -29 27 -36 4 -80 13 -96 22 -36 17 -48 19 -48 5z"/>
<path d="M2630 3680 c-14 -4 -40 -8 -57 -9 -52 -2 -38 -18 20 -24 64 -8 99 0
95 22 -4 19 -23 22 -58 11z"/>
<path d="M2400 3649 c-20 -37 -8 -63 35 -77 54 -18 285 -13 308 7 32 26 17 31
-80 30 -54 0 -126 2 -160 6 -54 6 -62 10 -67 31 -8 29 -22 31 -36 3z"/>
<path d="M2347 3568 c-4 -13 -2 -52 3 -88 5 -36 10 -68 10 -72 0 -12 38 -9 46
3 3 6 2 14 -3 18 -20 13 -32 50 -31 95 1 53 -16 82 -25 44z"/>
<path d="M2630 3533 c-36 -7 -55 -24 -38 -35 15 -10 104 0 131 14 41 22 -17
35 -93 21z"/>
<path d="M2500 3505 c0 -11 7 -15 23 -13 12 2 22 8 22 13 0 6 -10 11 -22 13
-16 2 -23 -2 -23 -13z"/>
<path d="M2420 3495 c0 -21 27 -30 45 -15 19 16 10 30 -21 30 -15 0 -24 -6
-24 -15z"/>
<path d="M2541 3349 c-35 -4 -71 -11 -80 -15 -34 -13 27 -22 95 -14 38 5 92 9
120 10 33 0 56 5 64 15 11 13 3 15 -61 14 -41 -1 -103 -5 -138 -10z"/>
<path d="M2374 3336 c-3 -8 -4 -22 -2 -32 3 -15 5 -14 27 3 l25 20 -22 12
c-18 10 -23 9 -28 -3z"/>
<path d="M2640 3283 c-8 -2 -22 -7 -30 -9 -29 -10 13 -24 71 -24 50 0 79 12
79 32 0 9 -95 10 -120 1z"/>
<path d="M2463 3263 c-22 -8 -14 -23 11 -23 30 0 42 15 20 24 -9 3 -16 6 -17
5 -1 0 -8 -3 -14 -6z"/>
<path d="M2530 3260 c0 -5 7 -10 16 -10 8 0 12 5 9 10 -3 6 -10 10 -16 10 -5
0 -9 -4 -9 -10z"/>
<path d="M2377 3134 c-10 -10 -9 -52 2 -59 5 -3 52 -1 103 5 51 5 133 13 181
16 60 4 87 10 84 17 -3 9 -52 12 -163 12 -87 0 -168 4 -179 8 -11 5 -24 5 -28
1z"/>
<path d="M2380 2981 c0 -12 6 -21 16 -21 9 0 14 7 12 17 -5 25 -28 28 -28 4z"/>
<path d="M2581 2631 c-46 -4 -76 -11 -79 -18 -3 -10 23 -13 106 -13 127 0 172
7 172 26 0 15 -51 16 -199 5z"/>
<path d="M2523 2540 c-40 -16 -25 -30 31 -30 97 0 176 12 176 26 0 11 -21 14
-92 13 -51 0 -103 -4 -115 -9z"/>
<path d="M2676 2405 c-3 -9 1 -18 10 -22 19 -7 39 11 30 26 -10 16 -33 13 -40
-4z"/>
<path d="M2525 2390 c-3 -5 6 -12 20 -16 30 -7 75 2 75 16 0 13 -87 13 -95 0z"/>
<path d="M2655 2330 c-16 -4 -50 -8 -75 -9 -25 -1 -52 -6 -60 -11 -17 -11 159
-12 198 -2 62 18 1 39 -63 22z"/>
<path d="M2544 2270 c-58 -8 -77 -17 -69 -31 8 -12 103 -11 166 2 48 11 51 13
34 25 -20 15 -50 16 -131 4z"/>
<path d="M2655 2223 c-50 -12 -39 -43 16 -43 24 0 58 25 48 34 -9 8 -45 13
-64 9z"/>
<path d="M2474 2199 c-10 -17 17 -30 51 -23 53 10 65 15 60 25 -9 13 -102 11
-111 -2z"/>
<path d="M2370 2151 c-6 -16 -10 -42 -8 -57 l4 -29 17 37 c18 40 22 78 8 78
-5 0 -14 -13 -21 -29z"/>
<path d="M2480 2136 c-9 -12 -5 -16 25 -22 36 -6 139 1 157 12 23 14 -11 24
-86 24 -61 0 -87 -4 -96 -14z"/>
<path d="M6067 4573 c-13 -12 -7 -23 12 -23 28 0 52 11 45 21 -6 10 -48 12
-57 2z"/>
<path d="M5985 4510 c-12 -20 7 -30 54 -30 53 0 66 7 50 27 -13 15 -95 18
-104 3z"/>
<path d="M6007 4433 c-14 -13 -6 -23 19 -23 22 0 25 2 14 15 -14 16 -23 19
-33 8z"/>
<path d="M6083 4428 c2 -7 12 -13 22 -13 10 0 20 6 23 13 2 7 -6 12 -23 12
-17 0 -25 -5 -22 -12z"/>
<path d="M5975 4360 c-3 -5 0 -13 8 -16 23 -9 142 0 142 11 0 14 -142 19 -150
5z"/>
<path d="M5936 4291 c-14 -22 6 -31 67 -30 68 1 118 11 102 21 -21 13 -162 20
-169 9z"/>
<path d="M6017 4219 c-27 -4 -51 -10 -53 -12 -9 -9 122 -16 151 -9 l30 9 -25
7 c-44 13 -54 14 -103 5z"/>
<path d="M6049 4066 c-3 -3 -33 -7 -68 -10 -69 -5 -77 -9 -66 -27 10 -14 182
-7 211 9 18 10 17 11 -9 21 -29 11 -60 14 -68 7z"/>
<path d="M5990 3970 c-70 -4 -85 -8 -88 -22 -3 -15 4 -18 50 -18 59 0 177 16
186 24 16 16 -43 23 -148 16z"/>
<path d="M6000 3893 c-60 -4 -86 -16 -74 -35 3 -4 46 -8 95 -8 73 0 91 3 96
16 6 18 -13 35 -37 32 -8 -1 -44 -3 -80 -5z"/>
<path d="M5995 3342 c-11 -2 -24 -8 -30 -13 -19 -19 20 -29 118 -29 78 0 97 3
97 15 0 8 -13 16 -32 19 -53 8 -131 12 -153 8z"/>
<path d="M6027 3253 c-4 -3 -7 -12 -7 -20 0 -15 95 -19 104 -4 11 17 -82 40
-97 24z"/>
<path d="M6020 3176 c0 -9 7 -16 16 -16 17 0 14 22 -4 28 -7 2 -12 -3 -12 -12z"/>
<path d="M6100 3170 c0 -5 14 -10 31 -10 17 0 28 4 24 10 -3 6 -17 10 -31 10
-13 0 -24 -4 -24 -10z"/>
<path d="M5935 3100 c-14 -23 18 -30 137 -30 184 0 162 25 -33 37 -72 4 -98 3
-104 -7z"/>
<path d="M5960 3010 c0 -5 14 -10 30 -10 17 0 33 0 37 -1 4 0 9 4 11 10 2 7
-12 11 -37 11 -23 0 -41 -4 -41 -10z"/>
<path d="M6171 3011 c-20 -13 -4 -31 27 -31 30 0 59 15 46 22 -21 12 -60 16
-73 9z"/>
<path d="M5978 2942 c-51 -3 -63 -16 -25 -25 12 -3 82 -9 155 -13 118 -6 132
-5 132 10 0 8 -10 18 -22 21 -30 6 -180 11 -240 7z"/>
<path d="M5970 2873 c0 -5 5 -15 10 -23 7 -11 12 -12 21 -3 6 6 8 16 5 22 -8
12 -36 15 -36 4z"/>
<path d="M6003 2221 c-71 -4 -117 -11 -125 -19 -22 -22 10 -32 87 -27 233 16
245 17 245 30 0 17 -24 25 -63 23 -18 -1 -82 -4 -144 -7z"/>
<path d="M5898 2133 c-59 -4 -75 -16 -38 -28 12 -4 70 -3 130 0 107 7 160 3
160 -14 0 -4 -71 -11 -157 -14 -86 -4 -161 -11 -166 -16 -20 -20 46 -46 128
-49 219 -9 252 -8 274 12 23 21 27 46 10 63 -8 8 -5 13 10 18 12 3 21 10 21
14 0 17 -203 24 -372 14z"/>
<path d="M462 4638 c3 -7 15 -15 27 -16 16 -3 22 1 19 10 -3 7 -15 15 -27 16
-16 3 -22 -1 -19 -10z"/>
<path d="M465 4520 c-16 -17 -16 -20 -2 -26 27 -10 52 0 55 24 4 29 -28 30
-53 2z"/>
<path d="M8065 4297 c-11 -9 -16 -20 -12 -31 8 -20 31 -21 47 0 11 12 11 18
-1 30 -13 12 -18 12 -34 1z"/>
<path d="M8171 4101 c-7 -5 -10 -14 -7 -20 9 -13 102 -15 111 -2 14 23 -73 41
-104 22z"/>
<path d="M8003 4013 c-13 -3 -31 -15 -42 -29 -10 -13 -24 -24 -29 -24 -6 0
-14 -10 -18 -22 -3 -13 -13 -31 -21 -40 -19 -22 -10 -48 17 -48 18 0 24 10 22
32 -1 3 6 12 14 19 14 11 20 8 43 -20 25 -30 29 -32 49 -20 19 12 24 11 38 -3
19 -19 11 -38 -17 -38 -28 0 -23 -14 16 -44 29 -23 35 -24 35 -10 0 10 7 25
16 35 11 12 13 22 5 36 -5 10 -12 26 -15 36 -6 18 -12 21 -57 31 -16 4 -29 15
-32 28 -8 29 -2 34 18 14 23 -22 56 -20 62 4 3 11 20 24 40 31 19 6 31 15 26
19 -9 9 -138 18 -170 13z"/>
<path d="M8193 3953 c-7 -2 -13 -10 -13 -18 0 -9 17 -12 63 -10 80 3 77 2 77
20 0 12 -13 15 -57 14 -32 0 -64 -3 -70 -6z"/>
<path d="M8155 3891 c-18 -8 -16 -10 18 -27 34 -16 41 -17 64 -4 45 26 40 40
-14 39 -26 0 -57 -4 -68 -8z"/>
<path d="M8205 3810 c-4 -6 8 -10 29 -10 19 0 38 5 41 10 4 6 -8 10 -29 10
-19 0 -38 -4 -41 -10z"/>
<path d="M8072 3724 c-36 -25 -23 -74 20 -74 21 0 23 11 7 27 -9 9 -5 14 17
19 40 9 44 13 37 29 -7 20 -53 19 -81 -1z"/>
<path d="M8077 3614 c-4 -4 -4 -10 -1 -15 6 -10 34 0 34 12 0 10 -24 12 -33 3z"/>
<path d="M8146 1532 c-8 -13 5 -52 15 -46 12 7 12 54 0 54 -6 0 -12 -4 -15 -8z"/>
<path d="M8155 1409 c-9 -24 -2 -94 10 -94 14 0 18 55 6 85 -7 21 -10 22 -16
9z"/>
<path d="M2512 1669 c-44 -17 -19 -34 54 -37 49 -2 75 2 89 12 11 8 18 16 15
19 -11 10 -137 15 -158 6z"/>
<path d="M2455 1509 c-8 -108 -3 -235 10 -232 13 4 19 293 6 306 -5 5 -12 -23
-16 -74z"/>
<path d="M3791 1081 c-36 -50 -29 -61 37 -61 84 0 95 11 52 55 -41 43 -62 44
-89 6z"/>
<path d="M5022 1098 c-18 -18 -14 -56 7 -68 42 -22 115 -4 124 31 6 21 -12 30
-42 22 -12 -3 -32 2 -46 11 -29 19 -28 19 -43 4z"/>
<path d="M905 1060 c-3 -5 1 -10 10 -10 9 0 13 5 10 10 -3 6 -8 10 -10 10 -2
0 -7 -4 -10 -10z"/>
<path d="M2173 1053 c-17 -6 -16 -30 1 -36 20 -8 57 4 53 16 -4 13 -38 25 -54
20z"/>
<path d="M6640 1050 c0 -5 5 -10 10 -10 6 0 10 5 10 10 0 6 -4 10 -10 10 -5 0
-10 -4 -10 -10z"/>
</g>
</svg>